<svg xmlns="http://www.w3.org/2000/svg" viewBox="0 0 3000 3000" width="3000" height="3000"><g transform="translate(392.4 1348.8) rotate(0.0 856.8 537.6) scale(1.200216005261451 1.2005091445032492)"><svg width="1427.743" height="895.62" viewBox="0 0 1427.743 895.62"><linearGradient id="a" gradientUnits="userSpaceOnUse" x1="466.625" x2="950.619" y1="-15.692" y2="850.354"><stop offset=".37" stop-color="#3658c1"/><stop offset=".967" stop-color="#111"/></linearGradient><path d="M1402.365 713.867 499.741 842.265c-22.637 3.22-50.978-12.133-63.271-34.322L41.771 95.55c-7.306-13.187-7.321-25.789-1.408-34.537L5.267 112.941c-5.913 8.749-5.898 21.35 1.408 34.537l394.699 712.394c12.294 22.188 40.635 37.542 63.271 34.321l902.623-128.398c9.212-1.311 16.062-5.497 20.118-11.498l35.096-51.929c-4.055 6.002-10.906 10.189-20.117 11.499z" fill="url(#a)"/><path d="M458.516 895.616c-21.735.002-46.673-14.786-58.017-35.26L5.8 147.963c-7.274-13.13-7.771-26.099-1.362-35.581l35.096-51.929a1 1 0 1 1 1.658 1.119c-5.973 8.837-5.443 21.045 1.455 33.493l394.699 712.394c12.083 21.811 40.014 36.984 62.255 33.816l902.623-128.398.141.99-.141-.99c8.649-1.23 15.368-5.058 19.43-11.067a1 1 0 1 1 1.658 1.119l-35.096 51.929c-4.387 6.491-11.582 10.616-20.806 11.929L464.786 895.184a44.584 44.584 0 0 1-6.27.432zM35.637 69.791l-29.541 43.71C.123 122.338.654 134.546 7.55 146.994l394.699 712.394c12.084 21.811 40.011 36.975 62.256 33.815l902.623-128.397c8.649-1.23 15.368-5.058 19.43-11.067l29.585-43.775c-3.792 2.488-8.386 4.147-13.638 4.895L499.882 843.256c-23.001 3.266-51.835-12.354-64.287-34.828L40.897 96.034c-5.103-9.209-6.871-18.338-5.26-26.243z" fill="#111"/><path d="M397.918 1.5c15.803-2.248 34.807 3.18 50.886 14.488l88.202 62.063 475.603-67.655c22.63-3.219 50.95 12.201 63.244 34.39l345.224 623.097c12.294 22.189 3.917 42.765-18.713 45.984L499.741 842.265c-22.637 3.22-50.977-12.133-63.271-34.322L41.771 95.55C29.444 73.3 37.874 52.716 60.51 49.496z" fill="#b0c3ff"/><path d="M493.611 843.688c-21.735.002-46.672-14.786-58.016-35.26L40.897 96.034c-6.466-11.67-7.565-23.604-3.017-32.744 4.001-8.04 11.988-13.291 22.489-14.785L397.777.51l.141.99-.141-.99c16.019-2.28 35.311 3.201 51.602 14.661l87.878 61.835 475.211-67.599c22.967-3.269 51.789 12.389 64.259 34.896L1421.952 667.4c6.455 11.651 7.553 23.569 3.01 32.697-3.994 8.027-11.97 13.27-22.457 14.762L499.882 843.255a44.598 44.598 0 0 1-6.271.433zM405.177 2a50.47 50.47 0 0 0-7.118.49L60.651 50.486c-9.831 1.398-17.282 6.263-20.981 13.695-4.251 8.542-3.167 19.799 2.975 30.885l394.7 712.394c11.01 19.872 35.176 34.231 56.208 34.233 2.052 0 4.07-.137 6.047-.418l902.622-128.397c9.816-1.396 17.256-6.252 20.949-13.672 4.245-8.53 3.163-19.771-2.969-30.838L1074.979 45.271c-12.102-21.844-40.021-37.05-62.228-33.884L537.147 79.041a.991.991 0 0 1-.716-.173l-88.203-62.063C434.705 7.294 419.099 2 405.177 2z" fill="#111"/></svg></g><g transform="translate(1424.3999999999999 616.8) rotate(0.0 712.8000000000001 726.6) scale(1.2004001333777927 1.2008398937985527)"><svg width="1187.604" height="1210.153" viewBox="0 0 1187.604 1210.153"><path d="m1186.604 269.782-380.515 939.371L1 940.371 381.515 1z" fill="#fff"/><path d="M806.089 1210.154a.992.992 0 0 1-.316-.052L.684 941.319a.998.998 0 0 1-.611-1.323L380.588.625a1.004 1.004 0 0 1 1.243-.573l805.09 268.782a.997.997 0 0 1 .611 1.324l-380.516 939.371a.999.999 0 0 1-.927.625zM2.326 939.759l803.188 268.148 379.764-937.514L382.089 2.246z" fill="#111"/><path d="m908.881 313.294-194.369-64.891-14.424 35.609 194.369 64.891z" fill="#3658c1"/><path d="M894.456 349.903c-.105 0-.212-.017-.316-.051l-194.368-64.891a.997.997 0 0 1-.611-1.324l14.424-35.608c.198-.49.745-.738 1.243-.573l194.369 64.891a.997.997 0 0 1 .611 1.324l-14.425 35.609c-.156.385-.53.623-.927.623zm-193.042-66.502 192.468 64.256 13.673-33.751-192.469-64.256z" fill="#111"/><path d="m964.457 419.512-281.225-93.888-14.424 35.609 281.225 93.888z" fill="#3658c1"/><path d="M950.032 456.121a.992.992 0 0 1-.316-.052l-281.225-93.888a.997.997 0 0 1-.611-1.324l14.424-35.608a1.004 1.004 0 0 1 1.243-.573l281.226 93.888a.997.997 0 0 1 .611 1.324l-14.425 35.609a.999.999 0 0 1-.927.624zm-279.898-95.5 279.324 93.254 13.673-33.752-279.325-93.253z" fill="#111"/><path d="M288.886 708.345c-10.81-3.609-22.772 1.231-26.698 10.923-3.9 9.628 1.758 20.35 12.568 23.959s22.776-1.23 26.676-10.857c3.926-9.692-1.736-20.416-12.546-24.025" fill="#3658c1"/><path d="M282.084 745.418a24.12 24.12 0 0 1-7.645-1.242c-5.779-1.929-10.447-5.974-12.808-11.096-2.1-4.557-2.231-9.595-.371-14.188 4.097-10.115 16.631-15.271 27.941-11.496 5.773 1.928 10.438 5.967 12.795 11.083 2.107 4.572 2.235 9.639.361 14.266-3.17 7.83-11.439 12.673-20.273 12.673zm-.526-37.264c-8.049 0-15.566 4.386-18.443 11.488-1.651 4.076-1.532 8.551.334 12.601 2.13 4.623 6.367 8.28 11.624 10.036 10.33 3.446 21.738-1.166 25.433-10.285 1.665-4.109 1.55-8.612-.324-12.678-2.127-4.616-6.359-8.27-11.611-10.023a22.18 22.18 0 0 0-7.013-1.139z" fill="#111"/><path d="M252.851 797.304c-10.81-3.609-22.772 1.231-26.698 10.923-3.9 9.628 1.758 20.35 12.568 23.959s22.776-1.23 26.676-10.857c3.926-9.692-1.736-20.416-12.546-24.025" fill="#3658c1"/><path d="M246.05 834.377a24.13 24.13 0 0 1-7.646-1.242c-5.779-1.929-10.447-5.973-12.808-11.095-2.1-4.557-2.231-9.595-.371-14.188 4.096-10.115 16.63-15.275 27.941-11.497 5.773 1.928 10.438 5.967 12.795 11.083 2.107 4.572 2.235 9.639.361 14.266-3.17 7.831-11.437 12.673-20.272 12.673zm-.526-37.264c-8.05 0-15.567 4.387-18.444 11.489-1.65 4.076-1.532 8.551.334 12.601 2.131 4.622 6.367 8.279 11.624 10.035 10.336 3.447 21.738-1.165 25.433-10.284 1.665-4.11 1.55-8.613-.324-12.679-2.127-4.616-6.359-8.27-11.611-10.023a22.174 22.174 0 0 0-7.012-1.139z" fill="#111"/><path d="M216.817 886.26c-10.81-3.609-22.8 1.299-26.7 10.927s1.758 20.35 12.568 23.959 22.776-1.23 26.676-10.857c3.9-9.628-1.734-20.42-12.544-24.029" fill="#3658c1"/><path d="M210.015 923.336c-2.537 0-5.121-.399-7.646-1.242-5.779-1.929-10.447-5.973-12.808-11.095-2.1-4.557-2.231-9.595-.371-14.188 4.1-10.119 16.635-15.275 27.942-11.5 5.756 1.921 10.413 5.963 12.775 11.09 2.113 4.585 2.248 9.65.38 14.262-3.17 7.831-11.437 12.673-20.272 12.673zm-.525-37.266c-8.05 0-15.568 4.388-18.446 11.492-1.65 4.076-1.532 8.551.334 12.601 2.131 4.622 6.367 8.279 11.624 10.035 10.335 3.446 21.739-1.165 25.433-10.284 1.658-4.095 1.537-8.596-.343-12.675-2.133-4.627-6.357-8.283-11.592-10.03a22.12 22.12 0 0 0-7.01-1.139z" fill="#111"/><path d="m651.467 177.647-224.947-75.1-81.152 200.336 224.948 75.1z" fill="#b0c3ff"/><path d="M570.317 378.983c-.105 0-.212-.017-.316-.051l-224.948-75.1a.997.997 0 0 1-.611-1.324l81.151-200.336a1 1 0 0 1 1.243-.573l224.947 75.1a.997.997 0 0 1 .611 1.324l-81.15 200.336a1.002 1.002 0 0 1-.927.624zm-223.622-76.711 223.048 74.465 80.398-198.479-223.047-74.465z" fill="#111"/><path d="M522.779 180.124c-23.175-7.737-48.769 2.734-57.156 23.438-8.362 20.643 3.663 43.67 26.838 51.407 23.248 7.761 48.84-2.707 57.202-23.35 8.387-20.704-3.636-43.734-26.884-51.495" fill="#fff"/><path d="M508.153 258.518a50.52 50.52 0 0 1-16.008-2.6c-12.039-4.019-21.763-12.441-26.678-23.106-4.383-9.509-4.656-20.03-.771-29.625 8.56-21.132 34.759-31.903 58.399-24.012 12.073 4.031 21.818 12.463 26.736 23.135 4.387 9.519 4.656 20.061.758 29.685-6.637 16.388-23.943 26.523-42.436 26.523zm-1.015-79.935c-17.692 0-34.241 9.687-40.588 25.355-3.677 9.077-3.416 19.034.733 28.037 4.685 10.166 13.978 18.201 25.494 22.046 22.702 7.58 47.803-2.639 55.959-22.776 3.688-9.106 3.433-19.084-.721-28.096-4.688-10.173-14.002-18.219-25.553-22.075a48.319 48.319 0 0 0-15.324-2.491z" fill="#111"/><path d="M483.673 276.664c-44.057-14.709-92.04.192-116.612 33.461l181.558 60.614c5.024-39.795-20.889-79.366-64.946-94.075" fill="#fff"/><g fill="#111"><path d="M548.619 371.739c-.106 0-.214-.017-.316-.051l-181.558-60.614a1 1 0 0 1-.489-1.543c12.135-16.43 30.433-28.891 51.521-35.087 21.713-6.38 44.607-5.94 66.211 1.271 21.617 7.217 39.387 20.363 51.389 38.017 11.664 17.156 16.719 37.446 14.233 57.132a.996.996 0 0 1-.991.875zm-179.924-62.123 179.076 59.785c2.07-18.821-2.896-38.144-14.046-54.544-11.754-17.288-29.171-30.167-50.368-37.244-21.212-7.082-43.694-7.515-65.015-1.25-20.197 5.934-37.773 17.718-49.647 33.253zm465.322 244.695a.996.996 0 0 1-.316-.052L309.832 379.363a1 1 0 0 1 .633-1.897l523.868 174.896a1 1 0 0 1-.316 1.949zm-273.247-8.577a.996.996 0 0 1-.316-.052l-280.112-93.517a1 1 0 1 1 .633-1.897l280.112 93.517a1 1 0 0 1-.317 1.949zm381.406 127.334a.996.996 0 0 1-.316-.052L618.137 564.94a1 1 0 1 1 .633-1.897l323.723 108.076a1 1 0 0 1-.317 1.949zm-244.886.891a.996.996 0 0 1-.316-.052L250.851 524.968a1 1 0 1 1 .633-1.897L697.607 672.01a1 1 0 0 1-.317 1.949zm-341.442-31.344a.996.996 0 0 1-.316-.052L221.361 597.77a1 1 0 1 1 .633-1.897l134.171 44.794a1 1 0 0 1-.317 1.948zm417.834 139.496a.996.996 0 0 1-.316-.052L406.771 659.67a1 1 0 1 1 .633-1.897l366.595 122.389a1 1 0 0 1-.317 1.949zm-4.655 107.368a.996.996 0 0 1-.316-.052L347.318 748.743a1 1 0 1 1 .633-1.897L769.343 887.53a1 1 0 0 1-.316 1.949zM607.856 936.66a.996.996 0 0 1-.316-.052l-296.257-98.906a1 1 0 1 1 .633-1.897l296.257 98.906a1 1 0 0 1-.317 1.949zm49.339 117.462a.996.996 0 0 1-.316-.052L275.247 926.661a1 1 0 1 1 .633-1.897l381.631 127.409a1 1 0 0 1-.316 1.949z"/></g></svg></g><g transform="translate(1388.3999999999999 1184.3999999999999) rotate(-38.29340680586088 -577.8 619.1999999999999) scale(-1.211385514319948 1.2129189976963939)"><svg width="953.949" height="1021.008" viewBox="0 0 953.949 1021.008"><linearGradient id="b" gradientUnits="userSpaceOnUse" x1="252.117" x2="734.362" y1="820.822" y2="179.47"><stop offset=".658" stop-color="#111"/><stop offset="1" stop-color="#3658c1"/></linearGradient><path d="M478.057 11.2C486.732-.316 502.47-2.388 513.3 6.558l408.148 337.274c10.826 8.946 12.561 25.456 3.886 36.969l-471.551 625.77c-8.638 11.462-24.413 13.583-35.239 4.638L10.391 673.935c-10.825-8.946-12.523-25.507-3.886-36.969z" fill="#fff"/><path d="M433.8 1017.754a24.814 24.814 0 0 1-15.892-5.775L9.754 674.705c-11.193-9.249-13.008-26.449-4.047-38.341L477.258 10.6l.8.6-.8-.6A26.04 26.04 0 0 1 495.079.172a24.812 24.812 0 0 1 18.854 5.615l408.152 337.274c11.193 9.25 13.009 26.449 4.047 38.342l-471.55 625.769a26.041 26.041 0 0 1-17.829 10.407 25.14 25.14 0 0 1-2.953.175zM498.017 2a23.017 23.017 0 0 0-2.7.159 24.058 24.058 0 0 0-16.457 9.64L7.3 637.568c-8.327 11.05-6.656 27.018 3.725 35.6l408.152 337.274a22.819 22.819 0 0 0 17.338 5.155 24.058 24.058 0 0 0 16.465-9.624L924.535 380.2c8.327-11.05 6.656-27.018-3.724-35.6L512.658 7.329A22.871 22.871 0 0 0 498.017 2z" fill="#111"/><path d="M453.783 1006.571 925.334 380.8c8.675-11.513 6.94-28.023-3.886-36.969l-46.759-38.639L624.9 346.6l14.254 190.972L331.4 588.6l27.77 373.545 59.374 49.064c10.826 8.945 26.601 6.824 35.239-4.638z" fill="#3658c1"/><path d="M433.8 1017.753a24.815 24.815 0 0 1-15.892-5.773l-59.374-49.064a1 1 0 0 1-.36-.7l-27.768-373.54a1 1 0 0 1 .833-1.061l306.852-50.878-14.185-190.061a1 1 0 0 1 .833-1.061l249.787-41.408a1 1 0 0 1 .8.215l46.758 38.639c11.193 9.25 13.009 26.449 4.048 38.342l-471.55 625.769a26.043 26.043 0 0 1-17.83 10.407 25.109 25.109 0 0 1-2.952.174zm-73.663-56.107 59.045 48.792a22.809 22.809 0 0 0 17.337 5.155 24.053 24.053 0 0 0 16.466-9.624l.8.6-.8-.6L924.535 380.2c8.327-11.05 6.656-27.018-3.724-35.6L874.4 306.254l-248.432 41.185L640.154 537.5a1 1 0 0 1-.834 1.061l-306.852 50.878z" fill="#111"/><path d="M485.871 165.387c-17.091 22.68-13.653 55.384 7.675 73.008 21.375 17.664 52.551 13.563 69.642-9.118 17.132-22.734 13.691-55.44-7.684-73.1-21.327-17.624-52.5-13.521-69.633 9.213" fill="#3658c1"/><path d="M523.742 250.373a48.151 48.151 0 0 1-30.834-11.207c-21.708-17.939-25.223-51.306-7.836-74.381a50.545 50.545 0 0 1 34.6-20.216 47.978 47.978 0 0 1 36.469 10.831c21.737 17.962 25.257 51.372 7.846 74.476a50.424 50.424 0 0 1-34.52 20.157 48.838 48.838 0 0 1-5.725.34zm-37.871-84.986.8.6c-16.753 22.233-13.383 54.368 7.513 71.636a46.116 46.116 0 0 0 35.05 10.425 48.44 48.44 0 0 0 33.156-19.375c16.777-22.262 13.4-54.44-7.522-71.731a46 46 0 0 0-34.968-10.386 48.557 48.557 0 0 0-33.231 19.433z" fill="#111"/><path d="M943.542 347.089 535.389 9.815a24 24 0 0 0-11.828-5.3l-22.094-3.261a24.005 24.005 0 0 1 11.829 5.3l408.152 337.278c10.826 8.946 12.562 25.456 3.886 36.969l-471.551 625.77a24.837 24.837 0 0 1-23.436 9.926l22.093 3.257a24.836 24.836 0 0 0 23.436-9.926l471.552-625.771c8.672-11.512 6.94-28.022-3.886-36.968z" fill="url(#b)"/><path d="M455.9 1021.007a24.756 24.756 0 0 1-3.605-.264l-22.093-3.257a1 1 0 0 1 .292-1.978 23.926 23.926 0 0 0 22.491-9.539L924.535 380.2c8.327-11.05 6.656-27.018-3.724-35.6L512.659 7.329a23.121 23.121 0 0 0-11.338-5.086 1 1 0 0 1 .292-1.979l22.094 3.257a25.119 25.119 0 0 1 12.319 5.523L944.18 346.318c11.192 9.25 13.008 26.449 4.047 38.341l-471.551 625.77a26.142 26.142 0 0 1-20.776 10.578zm-15.749-4.076 12.436 1.834a23.925 23.925 0 0 0 22.491-9.539l471.552-625.77c8.327-11.05 6.656-27.018-3.724-35.6L534.752 10.586A23.11 23.11 0 0 0 523.415 5.5l-12.46-1.837a25.866 25.866 0 0 1 2.978 2.124l408.153 337.274c11.192 9.25 13.008 26.449 4.046 38.342l-471.55 625.769a26.528 26.528 0 0 1-14.432 9.759z" fill="#111"/></svg></g><g transform="translate(969.5999999999999 1516.8) rotate(0.0 746.4000000000001 462.6) scale(1.1998678602115365 1.2026861550700787)"><svg width="1244.137" height="769.278" viewBox="0 0 1244.137 769.278"><linearGradient id="c" gradientUnits="userSpaceOnUse" x1="716.362" x2="1239.61" y1="101.238" y2="27.443"><stop offset=".395" stop-color="#fff"/><stop offset="1" stop-color="#b0c3ff"/></linearGradient><linearGradient id="d" gradientUnits="userSpaceOnUse" x1="-10.343" x2="618.998" y1="555.688" y2="198.639"><stop offset="0" stop-color="#111"/><stop offset=".255" stop-color="#3658c1"/><stop offset=".539" stop-color="#b0c3ff"/><stop offset="1" stop-color="#fff"/></linearGradient><g><path d="M1195.559 8.384c-4.593-5.765-12.971-8.526-24.101-6.943l-460.72 65.538 43.604 54.735 460.721-65.538c11.129-1.583 19.508 1.178 24.101 6.943z" fill="url(#c)"/><path d="M754.341 122.714a1 1 0 0 1-.782-.377l-43.604-54.735a1 1 0 0 1 .642-1.614L1171.318.45c11.123-1.578 20.008 1.015 25.023 7.311l43.604 54.735a1 1 0 1 1-1.564 1.246c-4.556-5.719-12.786-8.054-23.178-6.576l-460.721 65.538c-.047.006-.094.01-.141.01zm-41.732-54.991 42.159 52.92 460.155-65.457c7.146-1.015 13.369-.308 18.234 1.998l-38.379-48.176c-4.556-5.719-12.788-8.055-23.178-6.576z" fill="#111"/><path d="M710.738 66.979c-11.318 1.61-23.719 6.555-35.432 14.199l-62.757 40.957 43.604 54.735 62.758-40.957c11.713-7.644 24.113-12.589 35.432-14.199z" fill="#fff"/><path d="M656.152 177.869a1 1 0 0 1-.783-.377l-43.604-54.735a1 1 0 0 1 .236-1.46l62.757-40.957c11.862-7.741 24.254-12.703 35.838-14.352.35-.048.702.09.923.367l43.604 54.735a1 1 0 0 1-.642 1.614c-11.295 1.606-23.407 6.463-35.026 14.046l-62.758 40.957a.996.996 0 0 1-.545.162zm-42.137-55.498 42.352 53.164 61.996-40.459c11.279-7.361 23.037-12.209 34.124-14.084l-42.173-52.939c-11.134 1.687-23.037 6.508-34.462 13.963z" fill="#111"/><path d="m612.548 122.134-361.699 51.452c-22.637 3.22-48.099 23.186-56.913 44.621L4.011 680.134c-4.485 10.909-3.791 20.086.957 26.045l43.604 54.734c-4.747-5.959-5.442-15.137-.957-26.045L237.54 272.942c8.813-21.436 34.276-41.401 56.913-44.621l361.699-51.452z" fill="url(#d)"/><path d="M48.572 761.914a.999.999 0 0 1-.783-.377L4.186 706.802c-5.198-6.525-5.588-16.131-1.099-27.049l189.925-461.927c8.915-21.683 34.798-41.973 57.697-45.231l361.699-51.452a1.01 1.01 0 0 1 .923.367l43.604 54.735a1.003 1.003 0 0 1-.642 1.614l-361.699 51.452c-22.274 3.168-47.453 22.912-56.128 44.011L48.54 735.249c-4.201 10.216-3.912 19.11.814 25.042a1 1 0 0 1-.782 1.623zm563.55-638.709-361.133 51.371c-22.274 3.168-47.453 22.912-56.128 44.011L4.936 680.514c-4.201 10.216-3.912 19.109.814 25.042l38.372 48.167c-1.216-5.522-.366-12.098 2.568-19.235l189.925-461.927c8.915-21.683 34.798-41.973 57.697-45.231l359.969-51.206z" fill="#111"/><path d="M1215.063 56.176c22.63-3.219 33.885 11.523 25.071 32.96l-207.911 505.673c-8.814 21.436-34.343 41.411-56.973 44.63L72.627 767.837c-22.637 3.22-33.825-11.532-25.011-32.968L237.54 272.942c8.813-21.436 34.276-41.401 56.913-44.621l361.699-51.452 62.757-40.957c11.713-7.644 24.114-12.589 35.432-14.199z" fill="#b0c3ff"/><path d="M66.635 769.28c-8.326 0-14.941-2.722-18.974-7.907-5.072-6.522-5.417-16.07-.971-26.885l189.925-461.927c8.915-21.683 34.798-41.973 57.697-45.23l361.479-51.42 62.572-40.835c11.861-7.741 24.254-12.704 35.837-14.352l460.721-65.538.141.99-.141-.99c11.227-1.599 20.162 1.057 25.153 7.474 5.073 6.523 5.423 16.061.984 26.856l-207.911 505.673c-8.916 21.683-34.825 41.978-57.757 45.24L72.768 768.827a43.779 43.779 0 0 1-6.133.453zM1221.06 56.733c-1.861 0-3.816.143-5.856.434l-460.721 65.538c-11.295 1.606-23.407 6.463-35.026 14.046L656.7 177.708c-.123.08-.261.132-.406.153l-361.7 51.452c-22.274 3.168-47.453 22.912-56.128 44.011L48.54 735.249c-4.162 10.123-3.914 18.965.7 24.897 4.52 5.812 12.777 8.19 23.246 6.701L975.11 638.45c22.307-3.174 47.513-22.921 56.189-44.021L1239.21 88.755c4.154-10.103 3.9-18.935-.714-24.867-3.65-4.693-9.729-7.155-17.436-7.155z" fill="#111"/></g></svg></g><g transform="translate(619.1999999999999 613.1999999999999) rotate(0.0 281.40000000000003 263.40000000000003) scale(1.2024382062561827 1.2001120833608607)"><svg width="468.049" height="438.959" viewBox="0 0 468.049 438.959"><linearGradient id="e" gradientTransform="matrix(.9983 -.0583 .0583 .9983 98.3734 301.4715)" gradientUnits="userSpaceOnUse" x1="-83.956" x2="173.967" y1="-201.922" y2="-12.766"><stop offset="0" stop-color="#3658c1"/><stop offset=".29" stop-color="#b0c3ff"/><stop offset="1" stop-color="#3658c1"/></linearGradient><path d="M201.588 106.777 467.049 256.6l-89.246 12.28 29.255 79.121-182.48-102.98-1.599 192.938-58.703-64.73-59.717 60.517 2.395-280.722 62.777 2.234z" fill="#3658c1"/><path d="M222.978 438.958c-.276 0-.548-.115-.741-.328l-57.991-63.947-58.975 59.764a.999.999 0 0 1-1.712-.711l2.395-280.722a.996.996 0 0 1 .309-.714 1.04 1.04 0 0 1 .727-.277l62.216 2.214 31.548-48.011a1 1 0 0 1 1.327-.322l265.46 149.824a1.001 1.001 0 0 1-.355 1.862l-88.012 12.109 28.821 77.954a1 1 0 0 1-1.429 1.218L225.564 246.726l-1.586 191.241a1 1 0 0 1-1 .991zm-58.702-66.729h.021c.274.006.534.125.72.328L222 435.391l1.578-190.377a1 1 0 0 1 1.491-.862l180.104 101.639-28.308-76.563a1 1 0 0 1 .801-1.338l86.308-11.875-262.063-147.908-31.344 47.701a1.007 1.007 0 0 1-.871.45l-61.751-2.198-2.365 277.227 57.984-58.76a1 1 0 0 1 .712-.298z" fill="#111"/><path d="m322.04 176.519-4.114 21.132c-7.961 40.897-35.398 77.67-78.589 98.332-76.729 36.707-174.134 8.779-217.582-62.39-18.978-31.087-24.52-65.278-18.346-96.988l4.114-21.132c-6.173 31.711-.632 65.901 18.346 96.988 43.448 71.169 140.854 99.097 217.582 62.39 43.191-20.663 70.628-57.435 78.589-98.332" fill="url(#e)"/><path d="M167.182 313.09c-58.19 0-115.662-28.823-146.28-78.977-18.332-30.028-24.894-64.726-18.475-97.7l4.114-21.131a.998.998 0 0 1 1.173-.791c.542.105.896.63.79 1.172l-.007.034c-6.312 32.473.16 66.651 18.226 96.242 43.114 70.623 140.145 98.441 216.297 62.009 41.359-19.787 69.8-55.352 78.032-97.586l.007-.035a1 1 0 0 1 1.963.381l-4.114 21.132c-8.346 42.875-37.19 78.975-79.138 99.043-22.982 10.996-47.853 16.207-72.588 16.207zM4.162 138.002c-5.933 32.122.6 65.834 18.447 95.069 43.114 70.624 140.148 98.439 216.298 62.009 40.889-19.562 69.149-54.548 77.742-96.148-12.669 33.012-38.292 60.329-72.766 76.82-77.05 36.862-175.232 8.703-218.867-62.77-14.158-23.191-21.295-49.164-20.854-74.98z" fill="#111"/><path d="M86.127 17.151c76.676-36.682 174.13-8.775 217.577 62.393 43.448 71.169 16.423 158.625-60.253 195.307-76.729 36.707-174.134 8.779-217.582-62.39-43.447-71.168-16.47-158.603 60.258-195.31z" fill="#b0c3ff"/><path d="M171.296 291.959c-58.189 0-115.66-28.823-146.279-78.977C4.149 178.801-1.342 139.737 9.554 102.985c11.209-37.805 38.25-68.609 76.142-86.737 77.046-36.857 175.228-8.699 218.862 62.774 20.861 34.171 26.348 73.233 15.449 109.991-11.212 37.814-38.246 68.619-76.124 86.739-22.982 10.995-47.853 16.207-72.587 16.207zM86.128 17.151l.432.902c-37.375 17.881-64.042 48.246-75.088 85.501C.738 139.756 6.155 178.248 26.723 211.94c30.249 49.549 87.044 78.027 144.542 78.029 24.454.001 49.031-5.149 71.755-16.021 37.36-17.874 64.02-48.239 75.07-85.504 10.735-36.208 5.323-74.698-15.239-108.38-43.115-70.621-140.142-98.44-216.292-62.011z" fill="#111"/><path d="M97.617 35.949C32.083 67.301 9.042 141.988 46.151 202.773c37.108 60.783 120.311 84.643 185.845 53.291 65.531-31.35 88.572-106.037 51.464-166.82C246.351 28.458 163.148 4.599 97.617 35.949" fill="#fff"/><path d="M170.369 270.822c-49.751 0-98.892-24.645-125.071-67.527-17.846-29.231-22.541-62.64-13.221-94.074 9.586-32.331 32.708-58.673 65.108-74.174 65.875-31.514 149.821-7.436 187.129 53.676 17.845 29.229 22.54 62.638 13.221 94.071-9.586 32.331-32.708 58.672-65.106 74.172-19.65 9.401-40.913 13.856-62.06 13.856zM98.048 36.851c-31.883 15.253-54.632 41.157-64.055 72.938-9.156 30.884-4.536 63.721 13.011 92.463 25.812 42.278 74.273 66.578 123.334 66.58 20.866.001 41.837-4.394 61.227-13.669 31.882-15.252 54.629-41.155 64.052-72.937 9.157-30.884 4.536-63.72-13.01-92.461-36.79-60.262-119.583-83.999-184.559-52.914z" fill="#111"/><path d="m127.26 84.505 3.13 50.78-44.151 29.546 54.092 14.843 18.931 48.452 30.246-41.658 55.936.429-35.414-40.567 15.611-48.189-52.161 16.53z" fill="#b0c3ff"/><path d="M159.262 229.126a.999.999 0 0 1-.932-.636l-18.749-47.984-53.606-14.71a.998.998 0 0 1-.292-1.795l43.674-29.227-3.095-50.207a1 1 0 0 1 1.545-.899l45.822 29.906 51.71-16.386a.999.999 0 0 1 1.253 1.261l-15.437 47.65 35.041 40.14c.259.296.32.717.156 1.075s-.571.592-.917.583l-55.421-.424-29.943 41.242a1 1 0 0 1-.809.411zm-70.648-64.68 51.981 14.264a.997.997 0 0 1 .667.601l18.266 46.748 29.171-40.178c.19-.262.5-.413.817-.413l53.713.411-33.952-38.892a.999.999 0 0 1-.198-.966l15.013-46.341-50.31 15.943c-.285.09-.597.048-.849-.116L128.38 86.429l3.008 48.793c.021.355-.146.695-.441.893z" fill="#111"/></svg></g><g transform="translate(1920.0 889.1999999999999) rotate(-3.325130821473266 -391.80000000000007 327.59999999999997) scale(-1.1960948327970549 1.1955440802138548)"><svg width="655.132" height="548.035" viewBox="0 0 655.132 548.035"><linearGradient id="f" gradientUnits="userSpaceOnUse" x1="87.934" x2="545.065" y1="108.689" y2="408.905"><stop offset=".097" stop-color="#3658c1"/><stop offset="1" stop-color="#111"/></linearGradient><path d="M166.722 22.555 338.563 1l-53.677 68.353c-9.167 11.672-27.376 13.956-40.618 5.095z" fill="#b0c3ff"/><path d="M262.12 80.838a33.126 33.126 0 0 1-18.408-5.559l-77.546-51.893a1 1 0 0 1 .432-1.823L338.439.008a1 1 0 0 1 .911 1.61L285.672 69.97c-5.59 7.119-14.435 10.868-23.552 10.868zm-92.615-57.624 75.319 50.4c12.811 8.575 30.429 6.386 39.276-4.879L336.274 2.3z" fill="#111"/><path d="m166.722 22.555 77.546 51.893c13.242 8.861 31.451 6.577 40.618-5.095L338.563 1l295.789 197.939c20.843 13.947 26.044 40.151 11.616 58.522l-196.757 250.55c-14.428 18.372-43.023 21.959-63.865 8.011L25.749 275.384C4.907 261.437-.295 235.233 14.133 216.862z" fill="#3658c1"/><path d="M413.419 525.5a51.533 51.533 0 0 1-28.629-8.647L25.192 276.215c-10.667-7.138-17.857-17.984-19.729-29.757a38.619 38.619 0 0 1 7.883-30.214l152.59-194.307a1 1 0 0 1 1.342-.213l77.546 51.893c12.811 8.572 30.43 6.383 39.275-4.882L337.776.382a1 1 0 0 1 1.343-.213l295.789 197.939c10.668 7.138 17.859 17.984 19.731 29.757a38.616 38.616 0 0 1-7.884 30.214L450 508.629c-8.683 11.053-22.418 16.871-36.581 16.871zM166.936 23.9 14.919 217.479a36.638 36.638 0 0 0-7.481 28.666c1.785 11.224 8.661 21.579 18.867 28.408L385.9 515.191c20.384 13.642 48.433 10.144 62.522-7.8l196.76-250.547a36.642 36.642 0 0 0 7.482-28.666C650.879 216.954 644 206.6 633.8 199.77L338.777 2.346l-53.1 67.624c-9.478 12.068-28.3 14.45-41.96 5.309z" fill="#111"/><path d="m645.968 257.461-196.757 250.55c-14.427 18.372-43.023 21.959-63.865 8.011L25.749 275.384C10.236 265 3.388 247.832 6.849 232.154l-4.97 22.511c-3.461 15.678 3.388 32.849 18.9 43.23l359.6 240.638c20.843 13.947 49.438 10.36 63.865-8.012L641 279.972a37.917 37.917 0 0 0 7.283-15.294l4.97-22.51a37.923 37.923 0 0 1-7.285 15.293z" fill="url(#f)"/><path d="M408.45 548.011a51.517 51.517 0 0 1-28.63-8.647L20.223 298.726C4.824 288.421-2.76 271.041.9 254.449l4.97-22.511a1 1 0 1 1 1.953.432c-3.485 15.781 3.769 32.339 18.479 42.183L385.9 515.191c20.385 13.642 48.432 10.145 62.522-7.8l196.758-250.55a36.8 36.8 0 0 0 7.093-14.891 1 1 0 0 1 1.954.431l-4.97 22.51a38.793 38.793 0 0 1-7.474 15.695L445.028 531.139c-8.681 11.053-22.416 16.872-36.578 16.872zM5.176 244.37l-2.32 10.51c-3.484 15.782 3.77 32.34 18.479 42.184L380.932 537.7c20.385 13.641 48.433 10.143 62.523-7.8l196.757-250.546a36.8 36.8 0 0 0 7.094-14.892l2.332-10.564a40.615 40.615 0 0 1-2.883 4.181l-.787-.618.787.618L450 508.629c-14.722 18.746-43.974 22.435-65.208 8.224l-359.6-240.638c-11.562-7.737-18.717-19.46-20.016-31.845z" fill="#111"/><path d="m166.581 222.427 97.448-124.09" fill="#fff"/><path d="M166.58 223.427a1 1 0 0 1-.786-1.618l97.448-124.09a1 1 0 1 1 1.573 1.235l-97.448 124.09a1 1 0 0 1-.787.383z" fill="#111"/><path d="m201.019 309.321 163.184-207.797" fill="#fff"/><path d="M201.019 310.321a1 1 0 0 1-.786-1.618l163.184-207.8a1 1 0 1 1 1.573 1.235l-163.184 207.8a1 1 0 0 1-.787.383z" fill="#111"/><path d="M282.116 363.59 445.3 155.793" fill="#fff"/><path d="M282.116 364.59a.987.987 0 0 1-.617-.214 1 1 0 0 1-.169-1.4l163.183-207.8a1 1 0 1 1 1.573 1.235L282.9 364.208a1 1 0 0 1-.784.382z" fill="#111"/><path d="m363.187 417.842 112.815-143.657" fill="#fff"/><path d="M363.187 418.842a1 1 0 0 1-.786-1.618l112.814-143.657a1 1 0 0 1 1.574 1.235L363.974 418.46a1 1 0 0 1-.787.382z" fill="#111"/></svg></g></svg>