<svg xmlns="http://www.w3.org/2000/svg" viewBox="0 0 1600 1200" width="1600" height="1200"><g transform="translate(769.0 158.0) rotate(108.06047193619925 381.5 233.5) scale(5.298611111111111 5.306818181818182)"><svg width="144" height="88" viewBox="0 0 144 88"><g fill="#c4d9f8"><path d="M110.756 80.021a.505.505 0 0 1-.263-.073c-5.429-3.322-10.852-6.86-16.097-10.281-10.804-7.047-21.975-14.335-33.738-20.082C40.25 39.612 21.342 36.155 4.454 39.3a.501.501 0 1 1-.184-.987c17.104-3.191 36.225.3 56.831 10.369 11.819 5.776 23.017 13.081 33.846 20.145 5.239 3.417 10.656 6.951 16.073 10.265a.502.502 0 0 1-.264.929z"/><path d="M27.022 55.644a.5.5 0 0 1-.409-.794l10.625-14.811a.502.502 0 1 1 .817.584L27.431 55.434a.499.499 0 0 1-.409.21zm-4.42-1.483a.5.5 0 0 1-.409-.794l10.453-14.57a.502.502 0 1 1 .817.584L23.01 53.951a.495.495 0 0 1-.408.21zm-4.42-1.481a.5.5 0 0 1-.409-.794l9.723-13.554a.502.502 0 1 1 .817.584L18.59 52.469a.496.496 0 0 1-.408.211zm-4.42-1.481a.5.5 0 0 1-.409-.794l9.076-12.652a.5.5 0 0 1 .701-.116.5.5 0 0 1 .116.7L14.17 50.989a.497.497 0 0 1-.408.21zm-4.42-1.483a.5.5 0 0 1-.409-.794l8.305-11.576a.503.503 0 0 1 .817.584L9.75 49.506a.498.498 0 0 1-.408.21zm-4.419-1.481a.5.5 0 0 1-.409-.794l7.086-9.877a.502.502 0 1 1 .817.584l-7.086 9.877a.497.497 0 0 1-.408.21zm-4.42-1.482a.5.5 0 0 1-.409-.794l5.597-7.803a.503.503 0 0 1 .817.584L.911 46.543a.497.497 0 0 1-.408.21z"/><path d="M37.739 40.688a.504.504 0 0 1-.46-.296l-7.465-16.626a.502.502 0 1 1 .917-.412l7.465 16.626a.502.502 0 0 1-.457.708zm-5.377-1.097a.504.504 0 0 1-.46-.297l-6.715-14.953a.502.502 0 1 1 .917-.411l6.715 14.953a.502.502 0 0 1-.457.708zm-5.245-.803a.504.504 0 0 1-.46-.296l-6.096-13.577a.501.501 0 1 1 .917-.41l6.096 13.574a.503.503 0 0 1-.457.709zm-5.182-.662a.504.504 0 0 1-.46-.296l-5.541-12.339a.503.503 0 0 1 .917-.412l5.541 12.339a.502.502 0 0 1-.457.708zm-4.958-.161a.504.504 0 0 1-.46-.296l-5.21-11.602a.503.503 0 0 1 .917-.412l5.21 11.602a.503.503 0 0 1-.457.708zm-4.858.06a.504.504 0 0 1-.46-.296L6.68 26.642a.503.503 0 0 1 .917-.412l4.979 11.087a.503.503 0 0 1-.457.708zm-4.574.691a.504.504 0 0 1-.46-.297l-5.03-11.204a.501.501 0 1 1 .917-.41l5.031 11.204a.501.501 0 0 1-.458.707zm24.512 40.94a.502.502 0 0 1-.346-.866c12.609-11.974 30.55-19.443 53.324-22.198 13.06-1.581 26.438-1.541 39.368-1.503 6.258.018 12.729.038 19.08-.127.266.005.509.212.516.489a.504.504 0 0 1-.49.515c-6.367.164-12.847.145-19.11.127-12.902-.037-26.246-.077-39.244 1.495-22.554 2.73-40.303 10.108-52.751 21.929a.506.506 0 0 1-.347.139z"/><path d="m59.969 81.04-.023-.001a.503.503 0 0 1-.48-.524l.84-18.201a.503.503 0 0 1 1.005.046l-.84 18.201a.502.502 0 0 1-.502.479zm-4.515 1.159-.023-.001a.503.503 0 0 1-.48-.524l.826-17.904c.013-.276.26-.511.525-.478a.503.503 0 0 1 .48.524l-.826 17.904a.502.502 0 0 1-.502.479zm-4.515 1.161-.023-.001a.503.503 0 0 1-.48-.524l.769-16.656c.013-.276.26-.516.525-.478a.503.503 0 0 1 .48.524l-.769 16.655a.503.503 0 0 1-.502.48zm-4.515 1.16-.023-.001a.503.503 0 0 1-.48-.524l.717-15.548c.013-.276.252-.519.525-.478a.503.503 0 0 1 .48.524l-.717 15.548a.503.503 0 0 1-.502.479zm-4.516 1.159-.023-.001a.503.503 0 0 1-.48-.524l.656-14.225a.503.503 0 0 1 1.005.046L42.41 85.2a.502.502 0 0 1-.502.479zm-4.516 1.161-.023-.001a.503.503 0 0 1-.48-.524l.56-12.138c.013-.276.261-.513.525-.478a.503.503 0 0 1 .48.524l-.56 12.138a.502.502 0 0 1-.502.479zM32.878 88l-.023-.001a.503.503 0 0 1-.48-.524l.443-9.588c.013-.276.251-.515.525-.478a.503.503 0 0 1 .48.524l-.443 9.588a.504.504 0 0 1-.502.479z"/><path d="M60.805 62.668a.498.498 0 0 1-.273-.08L45.209 52.7a.501.501 0 1 1 .546-.843l15.323 9.888a.501.501 0 0 1-.273.923zm-5.108 2.004a.498.498 0 0 1-.273-.08l-13.783-8.893a.501.501 0 1 1 .546-.843l13.783 8.893a.501.501 0 0 1-.273.923zM50.86 66.85a.498.498 0 0 1-.273-.08l-12.513-8.073a.501.501 0 1 1 .546-.843l12.513 8.073a.501.501 0 0 1-.273.923zm-4.708 2.262a.498.498 0 0 1-.273-.08l-11.374-7.339a.501.501 0 1 1 .546-.843l11.374 7.339a.501.501 0 0 1-.273.923zm-4.247 2.56a.498.498 0 0 1-.273-.08l-10.694-6.9a.501.501 0 1 1 .546-.843l10.694 6.9a.501.501 0 0 1-.273.923zm-4.042 2.691a.498.498 0 0 1-.273-.08L27.37 67.69a.501.501 0 1 1 .546-.843l10.22 6.593a.501.501 0 0 1-.273.923zm-3.46 3.066a.498.498 0 0 1-.273-.08l-10.327-6.664a.501.501 0 1 1 .546-.843l10.327 6.664a.501.501 0 0 1-.273.923zm75.923 6.37a.499.499 0 0 1-.32-.116c-4.339-3.586-8.862-7.11-13.237-10.517-9.04-7.042-18.388-14.325-26.632-22.567C55.759 36.22 47.336 21.195 45.103 5.943a.504.504 0 0 1 .425-.57.51.51 0 0 1 .57.425c2.201 15.034 10.528 29.868 24.751 44.091 8.198 8.199 17.521 15.461 26.537 22.485 4.38 3.412 8.91 6.941 13.26 10.537a.5.5 0 0 1-.32.888z"/><path d="M56.434 33.814a.501.501 0 0 1-.41-.793l9.388-13.151a.502.502 0 1 1 .819.582l-9.388 13.151a.502.502 0 0 1-.409.211zm-2.361-3.491a.501.501 0 0 1-.41-.793l9.235-12.937a.502.502 0 1 1 .82.582l-9.235 12.937a.503.503 0 0 1-.41.211zm-1.868-4.179a.501.501 0 0 1-.41-.793l8.592-12.034a.502.502 0 1 1 .819.582l-8.592 12.034a.5.5 0 0 1-.409.211zm-1.942-4.078a.501.501 0 0 1-.41-.793l8.019-11.234a.502.502 0 1 1 .819.582l-8.019 11.234a.498.498 0 0 1-.409.211zm-1.831-4.231a.501.501 0 0 1-.41-.793L55.36 6.763a.502.502 0 1 1 .819.582l-7.337 10.278a.5.5 0 0 1-.41.212zm-1.436-4.785a.501.501 0 0 1-.41-.793l6.261-8.77a.502.502 0 1 1 .819.582l-6.261 8.77a.498.498 0 0 1-.409.211zm-1.198-5.119a.501.501 0 0 1-.41-.793L50.334.21a.502.502 0 1 1 .82.582L46.208 7.72a.503.503 0 0 1-.41.211z"/><path d="M56.339 33.932a.708.708 0 0 1-.046-.002L40.19 32.448a.502.502 0 0 1-.455-.547.513.513 0 0 1 .547-.454l16.103 1.482a.502.502 0 0 1-.046 1.003zm-2.463-4.189a.708.708 0 0 1-.046-.002l-14.484-1.332a.502.502 0 0 1-.455-.547.512.512 0 0 1 .547-.454l14.484 1.332a.503.503 0 0 1-.046 1.003zm-2.18-4.163a.708.708 0 0 1-.046-.002l-13.15-1.21a.502.502 0 1 1 .092-1.001l13.15 1.21a.502.502 0 0 1-.046 1.003zm-2.043-4.15a.708.708 0 0 1-.046-.002l-11.951-1.1a.502.502 0 0 1-.455-.547c.026-.276.271-.463.547-.454l11.951 1.1a.502.502 0 0 1-.046 1.003zm-1.56-4.106a.708.708 0 0 1-.046-.002l-11.238-1.034a.502.502 0 0 1-.455-.547c.026-.276.273-.464.547-.454l11.238 1.034a.502.502 0 0 1-.046 1.003zm-1.343-4.086a.708.708 0 0 1-.046-.002l-10.739-.988a.502.502 0 0 1-.455-.547c.025-.275.267-.466.547-.454l10.739.988a.502.502 0 0 1-.046 1.003zm-.733-4.03a.708.708 0 0 1-.046-.002l-10.853-.998a.502.502 0 0 1-.455-.547.513.513 0 0 1 .547-.454l10.853.999a.502.502 0 0 1-.046 1.002z"/></g></svg></g><g transform="translate(61.0 68.0) rotate(0.0 457.5 307.5) scale(3.05 3.0445544554455446)"><svg width="300" height="202" viewBox="0 0 300 202"><g fill="#151a4f"><path d="m299.664 110.28-.043-.055c-.005.035-.013.067-.018.099zm-26.49 50.919c.323-.319.643-.639.961-.961l-1.069.82zm-17.603 13.252.215.279a93.095 93.095 0 0 0 6.646-4.421l-.537-.698zm37.884-43.06a92.64 92.64 0 0 0 2.794-7.469l-5.372 4.113zm-15.206 16.338-4.85-6.313 6.325-4.839 4.85 6.312zm-17.492 13.394-4.85-6.313 6.325-4.839 4.85 6.312zm-17.492 13.396-4.85-6.312 6.325-4.84 4.85 6.313zm-14.513 11.11 3.322-2.543-4.85-6.311-6.322 4.841 3.747 4.876c.326-.061.649-.103.976-.165 1.052-.209 2.089-.458 3.127-.698zm59.737-76.818 4.85 6.311 6.263-4.795.018-.099-4.807-6.257zm-11.185 8.566 4.85 6.313-6.325 4.839-4.85-6.312zm-17.496 13.394 4.85 6.312-6.325 4.84-4.85-6.313zm-17.493 13.395 4.85 6.312-6.325 4.84-4.85-6.313zm-17.494 13.393 4.85 6.312-6.324 4.839-4.851-6.312zm68.854-62.077-4.85-6.313 6.325-4.839 4.85 6.313zm-17.496 13.395-4.85-6.312 6.325-4.839 4.85 6.312zm-17.497 13.394-4.851-6.312 6.325-4.839 4.85 6.312zm-17.49 13.396-4.85-6.312 6.324-4.84 4.851 6.313zm-17.489 13.395-4.85-6.312 6.324-4.839 4.851 6.312zm-17.494 13.396-4.851-6.312 6.325-4.84 4.851 6.313zm86.523-97.325 4.85 6.313-6.325 4.839-4.85-6.312zm-17.496 13.392 4.85 6.313-6.325 4.839-4.85-6.313zM257.744 91.92l4.85 6.312-6.324 4.839-4.851-6.312zm-17.497 13.392 4.85 6.312-6.325 4.84-4.85-6.313zm-17.495 13.395 4.85 6.313-6.324 4.839-4.851-6.312zm-17.493 13.394 4.85 6.312-6.324 4.84-4.851-6.313zm86.332-75.457.712-.546a91.72 91.72 0 0 0-3.707-7.188l-1.858 1.422zm-17.48 13.38-4.851-6.312 6.325-4.84 4.85 6.313zm-17.495 13.395-4.85-6.312 6.325-4.84 4.85 6.313zm-17.493 13.397-4.85-6.312 6.325-4.84 4.85 6.313zm-17.493 13.395-4.85-6.312 6.324-4.839 4.851 6.312zm-17.492 13.394-4.851-6.312 6.325-4.839 4.85 6.312zm-17.493 13.396-4.85-6.312 6.324-4.84 4.851 6.313zm86.526-97.327 4.85 6.312-6.325 4.84-4.85-6.313zm-18.942 24.52-4.85-6.313 6.325-4.839 4.85 6.312zm-17.49 13.397-4.851-6.312 6.325-4.84 4.851 6.313zm-16.054 2.262 4.85 6.313-6.325 4.839-4.85-6.312zm-17.493 13.396 4.85 6.313-6.324 4.839-4.851-6.313zm-17.495 13.392 4.85 6.313-6.325 4.839-4.85-6.312zm86.542-78.664a93.252 93.252 0 0 0-5.714-5.066l4.566 5.942zm-17.182 3.132 4.85 6.313-6.324 4.839-4.851-6.312zm-18.939 24.523-4.851-6.312 6.325-4.84 4.85 6.313zm-16.047 2.265 4.85 6.312-6.324 4.839-4.851-6.312zm-17.494 13.394 4.85 6.313-6.324 4.839-4.851-6.312zm-17.493 13.393 4.85 6.312-6.325 4.84-4.85-6.313zm-18.938 24.529-4.851-6.312 6.325-4.839 4.851 6.312zm85.066-86.189 6.322-4.841-2.492-3.243a92.947 92.947 0 0 0-3.673-2.061l-5.007 3.835zm-16.033 2.253 4.851 6.312-6.325 4.839-4.85-6.312zM217.685 38.67l4.85 6.313-6.325 4.839-4.85-6.312zm-17.494 13.395 4.85 6.312-6.325 4.84-4.85-6.313zm-17.494 13.394 4.85 6.312-6.325 4.839-4.85-6.312zm-17.495 13.393 4.85 6.312-6.325 4.84-4.85-6.313zm68.835-62.06 6.322-4.841-4.233-5.509c-.394-.126-.784-.253-1.18-.373l-5.761 4.41zm-16.032 2.254 4.85 6.312-6.325 4.84-4.85-6.313zm-18.942 24.525-4.85-6.313 6.324-4.839 4.851 6.313zm-17.494 13.394-4.851-6.312 6.325-4.839 4.851 6.312zm-17.491 13.398-4.85-6.312 6.325-4.84 4.85 6.313zm-17.495 13.395-4.851-6.313 6.325-4.839 4.851 6.313zm67.572-72.797 6.322-4.841-2.768-3.602a93.647 93.647 0 0 0-5.101-.398l-3.305 2.53zm-16.03 2.251 4.85 6.312-6.324 4.84-4.851-6.313zm-17.496 13.394 4.851 6.313-6.325 4.839-4.851-6.312zM163.137 40l4.85 6.312-6.325 4.839-4.85-6.312zm-17.496 13.392 4.851 6.313-6.325 4.839-4.851-6.312zm54.495-51.078a93.65 93.65 0 0 0-4.628.497l1.474 1.919zm-19.187 4.667 4.85 6.312-6.325 4.84-4.85-6.313zm-17.494 13.393 4.851 6.312-6.325 4.84-4.851-6.313zm-17.496 13.393 4.851 6.313-6.325 4.839-4.851-6.312zm-12.63 19.7-4.851-6.313-1.293.989a94.017 94.017 0 0 0-3.292 6.114l3.111 4.05z"/></g><path d="M129.951 185.974 17.069 202 0 82.198l112.883-16.026z" fill="#428dfc"/><path d="m88.562 0-9.921 5.077h12.526zM43.943 22.827h56.338l-4.797-9.342h-33.28zM9.244 40.578h100.151l-4.798-9.342h-77.09zm4.696 17.751h104.568l-4.796-9.343H9.143zm9.113 17.751h104.569l-4.796-9.342H18.256zm9.113 17.753h75.199l18.262-9.345H27.369zm9.114 17.75h31.386l18.262-9.343H36.484zm6.529 12.717 8.422-4.309H45.597z" fill="#a1c3fc"/></svg></g><g transform="translate(266.0 207.0) rotate(0.0 531.5 398.0) scale(3.46119907918429 3.4622394077656815)"><svg width="307.119" height="229.909" viewBox="0 0 307.119 229.909"><linearGradient id="a" gradientUnits="userSpaceOnUse" x1="0" x2="307.119" y1="99.42" y2="99.42"><stop offset="0" stop-color="#eee"/><stop offset="1" stop-color="#d6d7d8"/></linearGradient><path d="M121.322 148.638h69.889v77.764h-69.889z" fill="#d6d7d8"/><path d="M78.01 223.88h156.513v6.029H78.01z" fill="#A1C3FC"/><path d="M0 0h307.119v198.84H0z" fill="url(#a)"/><path d="M5.414 4.958h296.291v163.755H5.414z" fill="#fff"/><circle cx="284.522" cy="183.469" fill="#eee" r="8.754"/></svg></g><g transform="translate(687.0 364.0) rotate(0.0 107.5 152.5) scale(2.979407444361298 3.004215751940428)"><svg width="72.162" height="101.524" viewBox="0 0 72.162 101.524"><linearGradient id="b" gradientUnits="userSpaceOnUse" x1="0" x2="72.162" y1="65.444" y2="65.444"><stop offset="0" stop-color="#a1c3fc"/><stop offset="1" stop-color="#78a9ef"/></linearGradient><path d="M45.613 53.165H26.548c-9.401 0-17.05-7.649-17.05-17.051v-9.532C9.499 11.925 21.423 0 36.081 0s26.583 11.925 26.583 26.582v9.532c0 9.402-7.65 17.051-17.051 17.051zM36.081 7c-10.798 0-19.582 8.784-19.582 19.582v9.532c0 5.542 4.509 10.051 10.05 10.051h19.064c5.542 0 10.051-4.509 10.051-10.051v-9.532C55.664 15.784 46.879 7 36.081 7z" fill="#a1c3fc"/><path d="M50.981 101.524h-29.8C9.483 101.524 0 92.041 0 80.343V50.544c0-11.698 9.483-21.181 21.181-21.181H50.98c11.698 0 21.181 9.483 21.181 21.181v29.799c.001 11.698-9.482 21.181-21.18 21.181z" fill="url(#b)"/><path d="M46.733 94.592H19.811C9.339 94.592.85 86.103.85 75.631v-26.43c0-10.472 8.489-18.961 18.961-18.961h26.922c10.472 0 18.961 8.489 18.961 18.961v26.43c0 10.472-8.489 18.961-18.961 18.961z" fill="#a1c3fc"/><path d="M36.081 79.696c-3.437 0-6.249-2.812-6.249-6.249V51.878c0-3.437 2.812-6.249 6.249-6.249s6.249 2.812 6.249 6.249v21.569c0 3.437-2.812 6.249-6.249 6.249z" fill="#23286b"/></svg></g><g transform="translate(1044.0 508.0) rotate(82.67530716897365 84.0 147.0) scale(3.4450938172869887 3.400416377515614)"><svg width="48.765" height="86.46" viewBox="0 0 48.765 86.46"><g fill="#A1C3FC"><path d="M10.005 57.058h12.998v6.499H10.005zm0 12.782h12.998v6.499H10.005z"/><path d="M27.167 86.46h-5.569a6 6 0 0 1-6-6V41.161h17.569V80.46a6 6 0 0 1-6 6z"/></g><path d="M21.054 40.81h6.499v37.262h-6.499z" fill="#8EA2DE"/><path d="M34.451 0H14.314C6.408 0 0 6.408 0 14.314v20.137c0 7.905 6.408 14.314 14.314 14.314h20.137c7.905 0 14.314-6.408 14.314-14.314V14.314C48.765 6.408 42.356 0 34.451 0zm-2.053 22.796H16.367V6.765h16.031z" fill="#A1C3FC"/></svg></g><g transform="translate(1195.0 452.0) rotate(0.0 169.0 339.5) scale(1.5363636363636364 1.5396825396825398)"><svg width="220" height="441" viewBox="0 0 220 441"><linearGradient id="c" gradientUnits="userSpaceOnUse" x1="3503.651" y1="2461.503" x2="4689.158" y2="2461.503" gradientTransform="matrix(0.0762 0 0 0.0762 -266.9782 -84.891)"><stop offset="0" style="stop-color:#ffbeb6"/><stop offset="1" style="stop-color:#f2a19c"/></linearGradient><path fill="url(#c)" d="M84.185 112.456S59.912 108.92 51.928 83.58c-.07-.222-3.075-13.076-5.109-16.351-2.436-3.923-8.468-6.304-12.203-6.211-4.519.113-12.619 1.542-22.191 3.942C10.259 65.504-.046 70.303 0 72.535c.034 1.655 1.746 2.867 3.397 2.984s3.241-.557 4.782-1.164c6.939-2.737 7.908-2.632 15.365-2.833 4.181-.113 7.979-.022 7.312 1.575-1.787 4.273-7.231 3.632-11.846 3.205-1.474-.136-4.195.05-5.652.31-1.457.26-3.744 1.429-3.092 2.756 1.528 3.108 9.975 2.77 15.268 2.439 2.291-.143 4.539.32 6.542 1.441 2.654 1.487 5.478 4.309 6.404 7.055 6.545 19.393 15.921 48.351 51.855 54.033l-6.15-31.88z"/><linearGradient id="d" gradientUnits="userSpaceOnUse" x1="5091.086" y1="2609.707" x2="5261.102" y2="4190.854" gradientTransform="matrix(0.0741 0 0 0.0741 -267.5851 -94.8663)"><stop offset="0" style="stop-color:#a1c3fc"/><stop offset=".055" style="stop-color:#9ec1fb"/><stop offset=".323" style="stop-color:#92b9f7"/><stop offset=".696" style="stop-color:#81aef2"/><stop offset="1" style="stop-color:#78a9ef"/></linearGradient><path fill="url(#d)" d="M129.369 68.058s-11.993 47.887-51.62 36.938l8.58 46.44s34.281-1.803 50.594-23.432c16.313-21.63-4.99-58.035-7.554-59.946"/><linearGradient id="e" gradientUnits="userSpaceOnUse" x1="4471.717" y1="6990.317" x2="5693.884" y2="6990.317" gradientTransform="matrix(0.0741 0 0 0.0741 -267.5851 -94.8663)"><stop offset=".129" style="stop-color:#428dfc"/><stop offset=".999" style="stop-color:#1d72d8"/></linearGradient><path fill="url(#e)" d="m141.503 405.233 12.829 35.763-90.563.003s4.644-8.951 20.124-15.582c15.48-6.631 29.929-20.184 29.929-20.184h27.681"/><path fill="#428DFC" d="m206.225 405.213 12.829 35.763-90.564.003s4.644-8.951 20.124-15.582 29.929-20.184 29.929-20.184h27.682"/><linearGradient id="f" gradientUnits="userSpaceOnUse" x1="3952.423" y1="5876.319" x2="6503.285" y2="4698.998" gradientTransform="matrix(0.0741 0 0 0.0741 -267.5851 -94.8663)"><stop offset="0" style="stop-color:#23286b"/><stop offset="1" style="stop-color:#151a4f"/></linearGradient><path fill="url(#f)" d="M180.188 152.47a32.575 32.575 0 0 1-4.946 9.791 25.281 25.281 0 0 1-13.472 9.114s0 .235-5.943 1.453c-8.153 1.364-9.093 1.599-9.093 1.599l-15.984-.875-7.784 30.637c-3.86 17.844-10.55 39.69-10.897 61.25-.493 30.814 1.752 139.837 1.752 139.837H141.5c22.688-22.568 20.535-40.217 22.213-75.979 1.68-35.752 7.146-24.26 5.457-58.312-1.68-34.051-.831-27.236 10.084-75.766a101.961 101.961 0 0 0 .934-42.749z"/><path fill="#23286B" d="M207.188 355.66c-3.497-19.564-10.018-15.551-8.707-30.695 1.289-15.133-1.744-24.926-7.418-40.936-5.643-16.022-17.61-13.513-.196-66.458a114.094 114.094 0 0 0 2.084-65.381c-1.189.266-2.469.533-3.824.794l.048-.898s-2.403.753-6.158 1.95c-1.143.174-2.325.344-3.558.505-.096.249-.196.485-.295.725-15.161 4.858-42.054 13.666-40.701 14.579 1.878 1.268-4.806 46.815-4.806 46.815l6.192 6.909c-.116.065-.189.104-.189.104l-6.004-7.012c-1.909 19.324-2.651 40.519-.928 58.912 2.177 23.138 45.815 129.676 45.815 129.676h27.689c-.003.002 4.433-30.004.956-49.589z"/><path opacity=".86" fill="#FFF" d="M187.009 169.892a.19.19 0 0 0-.245.106.18.18 0 0 0 .088.239l.005.002a.19.19 0 0 0 .245-.106.19.19 0 0 0-.093-.241zm-4.182-1.714a.19.19 0 0 0-.245.107.19.19 0 0 0 .107.245.19.19 0 0 0 .245-.107.195.195 0 0 0-.107-.245zm-9.115 15.28a.184.184 0 0 0-.339.144c.04.093.149.137.242.097a.182.182 0 0 0 .097-.241zm-1.735-4.159a.174.174 0 0 0-.223-.106l-.019.008a.188.188 0 0 0-.11.239.202.202 0 0 0 .254.099.182.182 0 0 0 .098-.24zm8.125-3.152a.18.18 0 1 0 .003.256.172.172 0 0 0 .01-.243l-.013-.013zm-3.199-3.186a.181.181 0 0 0-.255.003.218.218 0 0 0-.054.107.18.18 0 0 0 .055.161.049.049 0 0 0 .036.018l.012.002a.162.162 0 0 0 .207-.023.185.185 0 0 0 .005-.261l-.006-.007zm21.261 11.364a.348.348 0 0 0-.494.024l-.008.01a.346.346 0 0 0 .032.488l.002.002c.142.131.364.12.494-.024l.008-.01a.346.346 0 0 0-.032-.488l-.002-.002zm-6.464-5.616a.346.346 0 0 0-.488.032l-.002.002a.357.357 0 0 0 .535.47.366.366 0 0 0-.045-.504zm-6.453-5.603a.358.358 0 0 0-.503.032.357.357 0 0 0 .535.47.348.348 0 0 0-.032-.502zm-13.099 32.804a.358.358 0 0 0-.333.376.34.34 0 0 0 .358.322l.019-.001a.357.357 0 0 0 .332-.376.347.347 0 0 0-.376-.321zm-.606-8.534a.35.35 0 0 0-.32.377.355.355 0 1 0 .709-.043.379.379 0 0 0-.389-.334zm-.593-8.531a.377.377 0 0 0-.334.388.34.34 0 0 0 .358.322l.019-.001a.347.347 0 0 0 .333-.362l-.001-.012a.358.358 0 0 0-.375-.335zm-.608-8.522a.35.35 0 0 0-.32.377v.001a.355.355 0 1 0 .33-.378h-.01zm31.542-10.684a.355.355 0 1 0-.234.671.355.355 0 0 0 .234-.671zm-8.118-2.705a.34.34 0 0 0-.434.204l-.005.015a.347.347 0 1 0 .651.241l.008-.023a.338.338 0 0 0-.204-.433l-.016-.004zm-4.82 30.462a.359.359 0 0 0-.479-.174.36.36 0 1 0 .305.652l.007-.003a.359.359 0 0 0 .167-.475zm-3.817-7.649a.358.358 0 0 0-.477-.174.359.359 0 1 0 .305.651l.007-.003a.364.364 0 0 0 .165-.474zm-3.82-7.651a.376.376 0 0 0-.488-.157.359.359 0 0 0 .319.644.379.379 0 0 0 .169-.487zm-3.834-7.64a.352.352 0 1 0-.63.308.35.35 0 0 0 .477.157.336.336 0 0 0 .153-.465zm-21.373 25.327a.339.339 0 0 0-.433.206l-.008.026a.345.345 0 0 0 .217.438l.003.001a.357.357 0 0 0 .452-.219.378.378 0 0 0-.231-.452zm2.718-8.098a.351.351 0 0 0-.45.212l-.002.007a.357.357 0 0 0 .219.452.376.376 0 0 0 .454-.23.345.345 0 0 0-.217-.438c-.002-.003-.003-.003-.004-.003zm2.707-8.114a.357.357 0 0 0-.452.219.35.35 0 0 0 .215.448l.017.005a.34.34 0 0 0 .434-.204l.005-.015a.36.36 0 0 0-.219-.453zm34.754 9.926a.315.315 0 0 0-.532.333v.001a.314.314 0 0 0 .532-.334zm-4.047-6.469a.315.315 0 0 0-.434-.098.313.313 0 0 0-.098.433.315.315 0 0 0 .434.098.306.306 0 0 0 .098-.433zm-4.045-6.481a.228.228 0 0 0-.124-.12l-.012-.002a.321.321 0 0 0-.398.466l.002.003a.32.32 0 0 0 .434.098.264.264 0 0 0 .128-.186.272.272 0 0 0-.03-.259zm-4.046-6.47a.32.32 0 1 0-.101.446.32.32 0 0 0 .101-.443c.002-.001.002-.002 0-.003zm-19.748 24.569a.315.315 0 0 0-.377.235l-.001.005a.305.305 0 0 0 .215.373l.013.003a.333.333 0 0 0 .39-.239.329.329 0 0 0-.24-.377zm1.718-7.433a.315.315 0 0 0-.377.235l-.001.005a.305.305 0 0 0 .215.373l.013.003a.315.315 0 0 0 .377-.228.323.323 0 0 0-.227-.388zm1.719-7.433a.315.315 0 0 0-.377.235l-.001.005a.296.296 0 0 0 .228.375.315.315 0 0 0 .377-.235l.001-.005a.318.318 0 0 0-.228-.375zm31.476-8.55a.316.316 0 0 0-.439.069l-.007.009a.297.297 0 0 0 .068.43c.135.104.33.08.435-.055.003-.003.005-.008.009-.011a.321.321 0 0 0-.066-.442zm-6.218-4.434a.333.333 0 0 0-.445.079.321.321 0 0 0 .079.445.32.32 0 0 0 .366-.524zm-12.456 24.48a.333.333 0 0 0-.256.373.318.318 0 0 0 .626-.105.327.327 0 0 0-.37-.268zm-1.257-7.524a.333.333 0 0 0-.256.373c.03.169.191.283.36.254a.304.304 0 0 0 .258-.343l-.003-.019a.32.32 0 0 0-.359-.265zm-1.259-7.514a.304.304 0 0 0-.258.343l.003.019a.312.312 0 0 0 .614-.106.305.305 0 0 0-.359-.256zm-25.759 8.766a.325.325 0 0 0-.444.066.314.314 0 0 0 .069.438l.009.007a.297.297 0 0 0 .43-.068.309.309 0 0 0-.055-.434c-.002-.004-.005-.006-.009-.009zm43.337-14.248a.188.188 0 1 0-.011.266.194.194 0 0 0 .011-.266zm-3.07-3.284a.188.188 0 1 0-.011.266.195.195 0 0 0 .011-.266zm-3.08-3.298a.18.18 0 0 0-.254-.01.176.176 0 0 0-.032.245l.021.023a.182.182 0 0 0 .254.01.178.178 0 0 0 .011-.268zm-11.734 13.171a.185.185 0 1 0-.012.369.185.185 0 1 0 .012-.369zm.149-4.498a.178.178 0 0 0-.191.164v.014a.184.184 0 0 0 .178.191.194.194 0 0 0 .203-.176.189.189 0 0 0-.186-.192l-.004-.001zm.163-4.496a.178.178 0 0 0-.191.164v.014a.184.184 0 1 0 .191-.178zm8.716 5.212a.178.178 0 0 0-.224-.116c-.005.002-.011.003-.017.007a.18.18 0 0 0-.114.23l.003.01a.2.2 0 0 0 .239.11.187.187 0 0 0 .113-.241zm-1.584-4.226a.178.178 0 0 0-.23-.102l-.011.004a.191.191 0 0 0-.11.239.2.2 0 0 0 .239.11.188.188 0 0 0 .112-.251zm-1.576-4.212a.2.2 0 0 0-.239-.11.188.188 0 0 0-.11.239c.03.094.129.146.223.116.005-.002.011-.003.017-.007a.18.18 0 0 0 .114-.23.018.018 0 0 1-.005-.008zm15.285 10.065a.202.202 0 0 0-.279-.068l-.005.003a.207.207 0 0 0-.066.296.202.202 0 0 0 .279.068l.005-.003a.216.216 0 0 0 .066-.296zm-2.772-4.327a.202.202 0 0 0-.279-.068l-.005.003a.216.216 0 0 0 .231.365.206.206 0 0 0 .063-.285l-.01-.015zm-2.76-4.326a.216.216 0 0 0-.365.231c-.002.012.011.014.021.029a.23.23 0 0 0 .276.038c.1-.064.13-.197.068-.298zm-15.898 12.351a.232.232 0 0 0-.253.169.211.211 0 0 0 .157.252.2.2 0 0 0 .247-.133l.005-.025a.215.215 0 0 0-.154-.263h-.002zm1.102-5.017a.232.232 0 0 0-.253.169.211.211 0 0 0 .157.252.215.215 0 0 0 .263-.154v-.001a.236.236 0 0 0-.167-.266zm1.103-5.015a.232.232 0 0 0-.253.169.211.211 0 0 0 .157.252.2.2 0 0 0 .247-.137l.007-.032a.212.212 0 0 0-.158-.252zm1.105-5.018a.22.22 0 0 0-.253.169.211.211 0 0 0 .157.252.2.2 0 0 0 .247-.137l.007-.032a.216.216 0 0 0-.158-.252zm23.86 1.898a.21.21 0 0 0-.296.042l-.004.005a.229.229 0 0 0 .047.3.212.212 0 0 0 .296-.052c.002-.003.004-.005.005-.009a.203.203 0 0 0-.048-.286zm-4.216-2.945a.219.219 0 0 0-.3.047.212.212 0 0 0 .052.296c.003.002.005.004.009.005a.208.208 0 0 0 .288-.05.215.215 0 0 0-.049-.298zm-12.179 13.81a.208.208 0 0 0-.236-.175l-.008.001-.012-.002a.218.218 0 0 0-.162.246.208.208 0 0 0 .236.175l.007-.001a.302.302 0 0 0 .083-.04.192.192 0 0 0 .092-.204zm-1.152-5.238a.234.234 0 0 0-.177.256.228.228 0 0 0 .259.164.208.208 0 0 0 .163-.242l-.001-.003a.212.212 0 0 0-.244-.175zm-.897-5.053a.211.211 0 0 0-.174.245.211.211 0 0 0 .245.174.212.212 0 0 0 .174-.245.21.21 0 0 0-.237-.175l-.008.001zm20.218-3.419a.37.37 0 0 0-.51.083.368.368 0 0 0 .088.513.37.37 0 0 0 .503-.073.388.388 0 0 0-.081-.523zm-10.559 34.84a.374.374 0 0 0-.314.416c.034.198.22.332.418.3a.38.38 0 0 0 .314-.416.364.364 0 0 0-.418-.3zm-1.375-8.704a.364.364 0 1 0 .117.718.364.364 0 0 0-.117-.718zm-1.361-8.701a.363.363 0 1 0 .09.718l.015-.002a.374.374 0 0 0 .314-.416.366.366 0 0 0-.419-.3zm-1.374-8.704a.361.361 0 0 0-.302.411l.001.008a.364.364 0 1 0 .307-.419h-.006zm-1.363-8.702a.362.362 0 0 0 .105.717.374.374 0 0 0 .314-.416.368.368 0 0 0-.419-.301zm-30.327 26.171a.368.368 0 0 0-.44.589c.168.116.397.08.522-.082a.37.37 0 0 0-.082-.507zm5.186-7.12a.366.366 0 0 0-.427.593.366.366 0 0 0 .427-.593zm37.745-9.265a.371.371 0 0 0-.507-.122.371.371 0 0 0-.122.507.371.371 0 0 0 .507.122.377.377 0 0 0 .122-.507zm-4.591-7.515a.367.367 0 0 0-.501-.125l-.007.003a.376.376 0 0 0-.122.507.37.37 0 0 0 .63-.385zm-19.724 27.891a.359.359 0 0 0-.432.265l-.001.007c-.05.194.066.39.258.444a.389.389 0 0 0 .446-.269.37.37 0 0 0-.271-.447c.001 0 .001 0 0 0zm2.066-8.559a.35.35 0 0 0-.428.249l-.005.024a.354.354 0 0 0 .259.431.367.367 0 0 0 .446-.269v-.001a.348.348 0 0 0-.272-.434zm2.069-8.571a.368.368 0 0 0-.163.718.359.359 0 0 0 .432-.264l.001-.007a.368.368 0 0 0-.27-.447zm2.066-8.559a.365.365 0 0 0-.434.272.363.363 0 0 0 .704.173.366.366 0 0 0-.27-.445c.001 0 .001 0 0 0zm20.928-.438a.35.35 0 0 0-.482-.106l-.017.011a.375.375 0 0 0-.108.509c.121.158.34.199.511.096a.363.363 0 0 0 .1-.505l-.004-.005zm-21.802 28.971a.367.367 0 1 0-.15.719.37.37 0 0 0 .435-.285.365.365 0 0 0-.285-.434c.001 0 0 0 0 0zm1.704-8.611a.389.389 0 0 0-.437.296.374.374 0 0 0 .287.423.369.369 0 0 0 .435-.285.377.377 0 0 0-.285-.434zm1.688-8.598a.361.361 0 1 0-.136.71.369.369 0 0 0 .435-.285.376.376 0 0 0-.299-.425zm1.704-8.61a.357.357 0 0 0-.421.278l-.001.009a.365.365 0 0 0 .287.423.349.349 0 0 0 .422-.286.357.357 0 0 0-.287-.424zm11.299 12.463a.372.372 0 0 0-.29.432c.044.196.237.32.434.278a.36.36 0 0 0 .289-.417v-.003a.377.377 0 0 0-.433-.29zm-1.718-8.61a.378.378 0 0 0-.29.432.362.362 0 1 0 .709-.144.36.36 0 0 0-.417-.289l-.002.001zm-1.735-8.601a.372.372 0 0 0-.29.432.367.367 0 0 0 .442.275.368.368 0 0 0 .281-.418.372.372 0 0 0-.433-.289zm-27.57 19.633a.354.354 0 0 0-.491.096c-.003.004-.005.009-.009.013a.36.36 0 0 0 .097.498c.168.112.395.07.511-.095a.365.365 0 0 0-.098-.507c-.003 0-.006-.003-.01-.005zm4.868-7.303a.354.354 0 0 0-.491.096c-.003.004-.005.009-.009.013a.36.36 0 0 0 .097.498c.167.112.395.07.511-.095a.365.365 0 0 0-.098-.507l-.01-.005zm4.869-7.304a.366.366 0 0 0-.501.109.36.36 0 0 0 .097.498c.168.112.395.07.511-.095a.365.365 0 0 0-.107-.512zm4.868-7.304a.377.377 0 0 0-.501.109.36.36 0 0 0 .097.498.374.374 0 0 0 .511-.095.368.368 0 0 0-.104-.511c-.001.001-.002 0-.003-.001zm20.597-.176a.27.27 0 0 0-.347-.152l-.003.001a.279.279 0 0 0-.167.356.28.28 0 0 0 .355.167.28.28 0 0 0 .167-.356l-.005-.016zm-20.62 17.953a.263.263 0 0 0-.364.142.274.274 0 1 0 .364-.142zm2.605-6.085a.272.272 0 0 0-.364.14.276.276 0 0 0 .505.223.274.274 0 0 0-.141-.363zm2.605-6.086a.276.276 0 1 0 .141.364.28.28 0 0 0-.141-.364zm2.604-6.086a.284.284 0 0 0-.365.154.272.272 0 0 0 .153.353l.002.001a.263.263 0 0 0 .348-.135l.003-.009a.271.271 0 0 0-.133-.36c-.001-.001-.003-.003-.008-.004zm6.098 17.665a.273.273 0 0 0-.28.265v.002c.003.149.12.269.267.28a.278.278 0 0 0 .28-.267.263.263 0 0 0-.248-.279l-.019-.001zm.074-6.613a.263.263 0 0 0-.267.26v.01a.273.273 0 0 0 .265.28h.002a.29.29 0 0 0 .281-.28.274.274 0 0 0-.278-.269l-.003-.001zm.086-6.625a.29.29 0 0 0-.281.28.262.262 0 0 0 .255.267h.014a.262.262 0 0 0 .279-.248v-.021a.273.273 0 0 0-.265-.28c0 .002-.001.002-.002.002zm-18.598-1.078a.293.293 0 0 0-.394-.003.28.28 0 0 0 .392.398.294.294 0 0 0 .002-.395zm20.252-.161a.153.153 0 0 0-.182.115.153.153 0 0 0 .115.182l.012.002a.153.153 0 0 0 .171-.129.15.15 0 0 0-.116-.17zm-4.194 5.661a.232.232 0 0 0-.32.065l-.01.017a.226.226 0 0 0 .05.316l.021.013a.248.248 0 0 0 .342-.068.242.242 0 0 0-.066-.334c-.007-.002-.012-.006-.017-.009zm3.193-5.073a.253.253 0 0 0-.344.08.242.242 0 0 0 .066.334c.004.003.01.005.014.009.106.07.25.041.32-.065l.01-.017a.238.238 0 0 0-.057-.333c-.001-.001-.005-.003-.009-.008z"/><linearGradient id="g" gradientUnits="userSpaceOnUse" x1="6075.76" y1="2447.499" x2="5268.184" y2="5074.251" gradientTransform="matrix(0.0741 0 0 0.0741 -267.5851 -94.8663)"><stop offset="0" style="stop-color:#a1c3fc"/><stop offset=".323" style="stop-color:#92b9f7"/><stop offset=".696" style="stop-color:#81aef2"/><stop offset="1" style="stop-color:#78a9ef"/></linearGradient><path fill="url(#g)" d="M145.823 62.379a103.96 103.96 0 0 1 34.929 24.918c16.57 17.884 14.664 26.003 23.835 36.652 9.171 10.649 21.533 23.56 11.939 41.836 0 0-37.042 3.343-55.562-2.579l-31.569-95.09c-.001-.002 8.872 2.574 16.428-5.737z"/><linearGradient id="h" gradientUnits="userSpaceOnUse" x1="4540.521" y1="3645.618" x2="4018.957" y2="4352.252" gradientTransform="matrix(0.0741 0 0 0.0741 -267.5851 -94.8663)"><stop offset="0" style="stop-color:#ffbeb6"/><stop offset="1" style="stop-color:#f2a19c"/></linearGradient><path fill="url(#h)" d="M96.088 163.41s-12.633 7.965-22.783 10.864c-10.15 2.899-10.898 2.088-14.57-2.26a85.816 85.816 0 0 1-8.789-13.139c-1.056-2.143-4.473-2.339-3.91 3.148.563 5.488 7.94 8.842 4.767 11.539-3.172 2.697-13.935 2.929-21.959 2.249-8.024-.68-12.405-.793-5.718 9.321 6.687 10.114 14.977 16.208 37.851 7.57s38.779-6.501 46.689-5.505L96.088 163.41z"/><path fill="#A1C3FC" d="M129.039 69.674s9.416 29.365 5.036 48.024c-3.952 16.828-9.33 22.322-25.237 26.696-15.907 4.372-15.759 4.087-15.759 4.087l11.584 61.685s16.715 4.093 29.798-8.396 18.069-15.58 26.749-18.095c8.682-2.514 26.552-13.101 22.841-42.123s-11.037-49.004-38.224-79.172"/><linearGradient id="i" gradientUnits="userSpaceOnUse" x1="5529.231" y1="2433.466" x2="5414.927" y2="1922.679" gradientTransform="matrix(0.0741 0 0 0.0741 -267.5851 -94.8663)"><stop offset="0" style="stop-color:#ffbeb6"/><stop offset="1" style="stop-color:#f2a19c"/></linearGradient><path fill="url(#i)" d="M127.587 53.632a50.701 50.701 0 0 1 1.808 14.482s6.997 4.597 16.429-5.736l-6.852-17.073-11.385 8.327"/><path fill="#FFBEB6" d="M109.855 20.465c-.04.122-.067.213-.088.265-.014.015-.013.03-.021.054-.163.486-.31.986-.448 1.508-1.493 5.618-6.248 9.478-6.453 11.053-.205 1.573 2.727 3.045 4.181 3.382 1.453.337 2.249 7.898 7.669 12.939 5.084 4.729 13.578 5.361 19.557 3.033 3.833-11.941 2.708-17.967-8.397-25.053-12.118-7.739-10.312-16.121-10.312-16.121a23.9 23.9 0 0 0-5.688 8.94z"/><path fill="#E94A47" d="M166.658 35.529c-2.12-6.286-2.46-13.986-2.771-16.863-.423-3.93-6.803-16.667-21.103-18.268s-32.612.929-33.039 20.391a24.137 24.137 0 0 1 5.802-9.267s-1.814 8.38 10.308 16.118c1.264.8 2.484 1.663 3.656 2.59 5.178 8.026 7.123 17.167-1.177 25.468-.484.484.295 1.204.776.722 7.733-7.735 6.989-16.221 2.899-23.949 5.82 5.998 5.115 12.404 1.073 23.66 0 0 20.854 7.424 41.508-2.477a19.591 19.591 0 0 0-4.805-12.088 16.625 16.625 0 0 1-2.44-4.194c4.672 4.681 9.909 9.074 8.509 16.132a.53.53 0 0 0 1.035.232c1.626-8.188-5.246-12.831-10.231-18.207z"/><path fill="#1C2868" d="M115.138 28.135a4.435 4.435 0 0 1-7.452-2.411c-.122-.663.892-.977 1.016-.305a3.376 3.376 0 0 0 5.661 1.995c.499-.458 1.28.26.775.721z"/></svg></g><g transform="translate(235.0 463.0) rotate(0.0 144.0 349.0) scale(1.44 1.4391752577319588)"><svg width="200" height="485" viewBox="0 0 200 485"><linearGradient id="j" gradientUnits="userSpaceOnUse" x1="6292.863" y1="2521.016" x2="5827.458" y2="3242.729" gradientTransform="matrix(0.0741 0 0 0.0741 -276.8441 -94.8663)"><stop offset="0" style="stop-color:#ffbeb6"/><stop offset="1" style="stop-color:#f2a19c"/></linearGradient><path fill="url(#j)" d="M154.99 128.823s16.649-15.14 19.223-27.857c2.574-12.718 1.665-21.196 6.054-23.618 4.39-2.422 17.424-4.242 19.071-4.694 1.345-.369 1.059 2.422-4.843 4.542 0 0 3.481 1.817 4.238 8.024.757 6.209-4.994.303-6.206 1.363-1.211 1.06.907 8.175-6.358 12.566s-6.811 41.332-19.677 58.138c.001 0-10.594-28.616-11.502-28.464-.907.152 11.503 28.463 11.503 28.463"/><linearGradient id="k" gradientUnits="userSpaceOnUse" x1="4644.81" y1="2665.962" x2="4724.63" y2="2152.836" gradientTransform="matrix(0.0741 0 0 0.0741 -276.8441 -94.8663)"><stop offset="0" style="stop-color:#ffbeb6"/><stop offset="1" style="stop-color:#f2a19c"/></linearGradient><path fill="url(#k)" d="M79.847 66.943a50.747 50.747 0 0 0-.451 14.599s-6.538 5.234-16.89-4.186l5.232-17.65 12.109 7.237"/><path fill="#FFBEB6" d="M94.414 32.245c.051.117.087.206.112.256.016.015.017.029.025.05.207.47.401.953.587 1.461 2.01 5.459 7.102 8.863 7.455 10.412.352 1.549-2.433 3.288-3.848 3.759-1.415.472-1.504 8.08-6.431 13.606-4.622 5.187-13.019 6.607-19.189 4.843-4.928-11.542-6.535-20.117 3.862-28.212 11.345-8.839 10.93-14.559 10.93-14.559a23.966 23.966 0 0 1 6.497 8.384z"/><linearGradient id="l" gradientUnits="userSpaceOnUse" x1="4144.787" y1="1446.666" x2="4477.526" y2="1446.666" gradientTransform="matrix(0.0741 0 0 0.0741 -276.8441 -94.8663)"><stop offset="0" style="stop-color:#23286b"/><stop offset=".353" style="stop-color:#1e2361"/><stop offset="1" style="stop-color:#151a4f"/></linearGradient><circle fill="url(#l)" cx="42.613" cy="12.332" r="12.332"/><path fill="#1C2868" d="M91.105 37.597a4.434 4.434 0 0 0 7.06-3.396c.031-.674-1.015-.848-1.048-.166a3.374 3.374 0 0 1-5.341 2.74c-.556-.384-1.232.434-.671.822z"/><linearGradient id="m" gradientUnits="userSpaceOnUse" x1="-5607.429" y1="7577.563" x2="-4353.154" y2="7577.563" gradientTransform="matrix(-0.0741 0 0 0.0741 -262.4178 -94.8663)"><stop offset="0" style="stop-color:#28306d"/><stop offset=".51" style="stop-color:#1f275f"/><stop offset="1" style="stop-color:#171f51"/></linearGradient><path fill="url(#m)" d="M73.314 448.262h28.41s14.829 13.923 30.715 20.733S153.093 485 153.093 485l-92.942-.002 13.163-36.736"/><path fill="#28306D" d="m13.166 448.262 30.21.001s13.027 13.922 28.915 20.732C88.178 475.805 92.944 485 92.944 485L0 484.998l13.166-36.736"/><linearGradient id="n" gradientUnits="userSpaceOnUse" x1="5840.186" y1="7070.658" x2="4819.38" y2="5615.466" gradientTransform="matrix(0.0741 0 0 0.0741 -276.8441 -94.8663)"><stop offset="0" style="stop-color:#a1c3fc"/><stop offset=".696" style="stop-color:#81aef2"/><stop offset="1" style="stop-color:#78a9ef"/></linearGradient><path fill="url(#n)" d="m101.735 448.262-28.422-.024c-20.998-20.606-16.954-55.031-18.506-87.698-1.552-32.654.758-19.703-3.381-50.565-5.198-38.938-3.502-32.245-13.598-76.587a133.485 133.485 0 0 1-3.815-32.667c.109-1.023.205-1.949.301-2.793 2.743.192 5.631.313 8.64.325a135.64 135.64 0 0 0 43.282-6.801c1.745 15.708 4.958 44.956 5.041 45.498 1.095 7.378 1.709 11.784 3.946 24.542.181 1.023.325 2.046.433 3.081 1.853 17.994 4.331 46.593 4.729 71.027.484 28.155 1.35 112.662 1.35 112.662z"/><linearGradient id="o" gradientUnits="userSpaceOnUse" x1="4367.576" y1="5122.262" x2="4074.589" y2="2644.082" gradientTransform="matrix(0.0741 0 0 0.0741 -276.8441 -94.8663)"><stop offset="0" style="stop-color:#a1c3fc"/><stop offset=".696" style="stop-color:#81aef2"/><stop offset="1" style="stop-color:#78a9ef"/></linearGradient><path fill="url(#o)" d="M96.862 314.597c-2.322 22.592-53.486 133.665-53.486 133.665H13.174s1.047-36.362 4.729-55.476c3.706-19.114 10.613-15.19 9.23-29.971-1.371-14.769 1.853-24.338 7.857-39.949 5.992-15.647 19.854-23.026 1.384-74.71-6.04-16.899-10.011-38.301-8.904-50.867 5.139.622 10.31.943 15.486.963 15.549.102 31-2.469 45.677-7.607l4.464 44.427c.289 2.768.601 5.188.986 7.859 3.236 22.173 5.077 49.087 2.779 71.666z"/><path opacity=".86" fill="#FFF" d="M31.635 209.692a.21.21 0 0 0-.274-.111c-.106.045-.155.168-.111.274s.168.155.274.111a.206.206 0 0 0 .111-.274zm-1.97-4.724a.199.199 0 0 0-.253-.12l-.022.009a.212.212 0 0 0-.125.272.23.23 0 0 0 .289.112.205.205 0 0 0 .111-.273c.001.001.001.001 0 0zm-1.968-4.721a.236.236 0 0 0-.287-.127.23.23 0 0 0-.112.289.209.209 0 0 0 .274.111.215.215 0 0 0 .125-.273zm11.189 1.142a.205.205 0 1 0 .003.29.197.197 0 0 0 .013-.276.056.056 0 0 1-.016-.014zm20.493 9.288a.398.398 0 0 0-.561.026l-.009.01a.39.39 0 0 0 .037.553l.002.002a.398.398 0 0 0 .561-.026l.009-.01a.39.39 0 0 0-.039-.555zm-7.333-6.379a.39.39 0 0 0-.553.037l-.002.002a.404.404 0 1 0 .605.535l.002-.002a.418.418 0 0 0-.052-.572zM29.862 235.19a.407.407 0 0 0-.378.426c.01.213.192.377.406.366l.022-.001a.407.407 0 0 0 .378-.426.397.397 0 0 0-.428-.365zm-.688-9.691a.395.395 0 0 0-.363.428.404.404 0 0 0 .804-.045v-.002a.431.431 0 0 0-.441-.381zm-.675-9.689a.43.43 0 0 0-.381.44c.01.213.192.377.406.366l.022-.001a.397.397 0 0 0 .379-.412l-.001-.015a.404.404 0 0 0-.425-.378zm20.423 9.712a.408.408 0 1 0-.198.543l.007-.003a.412.412 0 0 0 .191-.54zm-4.335-8.687a.408.408 0 1 0-.198.543l.007-.003a.412.412 0 0 0 .191-.54zm-4.332-8.69a.425.425 0 0 0-.554-.178.41.41 0 0 0 .363.732.434.434 0 0 0 .191-.554zm-4.351-8.676a.399.399 0 0 0-.725.331l.008.018a.395.395 0 0 0 .539.176.38.38 0 0 0 .185-.504c.002-.006-.002-.014-.007-.021zm21.339 21.625a.36.36 0 0 0-.493-.112.358.358 0 0 0-.112.493.36.36 0 0 0 .493.112.356.356 0 0 0 .112-.493zm-4.592-7.347a.36.36 0 0 0-.493-.112.36.36 0 0 0-.112.493.36.36 0 0 0 .493.112.35.35 0 0 0 .12-.479c-.003-.006-.005-.011-.008-.014zm-4.588-7.361a.25.25 0 0 0-.141-.135l-.015-.002a.365.365 0 0 0-.452.528l.002.003a.362.362 0 0 0 .493.112.298.298 0 0 0 .145-.212.311.311 0 0 0-.032-.294zm-4.592-7.347a.361.361 0 1 0 0 .002v-.002zm-16.572 2.575a.376.376 0 0 0-.43.274.362.362 0 0 0 .701.17.38.38 0 0 0-.271-.444zm33.78-1.265a.356.356 0 0 0-.498.08l-.007.01a.341.341 0 0 0 .059.477c.006.005.013.008.018.014a.352.352 0 0 0 .494-.063l.009-.014a.368.368 0 0 0-.075-.504zm-21.191 22.766a.376.376 0 0 0-.29.423.355.355 0 0 0 .409.289.363.363 0 0 0 .303-.408.372.372 0 0 0-.422-.304zm-1.426-8.547a.376.376 0 0 0-.29.423.355.355 0 0 0 .409.289.345.345 0 0 0 .293-.389l-.003-.022a.365.365 0 0 0-.409-.301zm-1.429-8.533a.345.345 0 0 0-.293.389l.003.022a.355.355 0 0 0 .698-.12.344.344 0 0 0-.387-.293l-.021.002zm19.946-6.225a.214.214 0 0 0-.302-.014.215.215 0 0 0-.014.302.214.214 0 0 0 .302.014.218.218 0 0 0 .014-.302zm-20.293 7.482a.211.211 0 0 0-.216.202.21.21 0 0 0 .202.216.211.211 0 0 0 .216-.202.21.21 0 0 0-.202-.216zm.171-5.107a.2.2 0 0 0-.215.186v.016a.211.211 0 0 0 .202.216.22.22 0 0 0 .231-.2.214.214 0 0 0-.21-.218c-.004-.002-.007-.002-.008 0zM46.53 203a.201.201 0 0 0-.273-.124.206.206 0 0 0-.129.261l.003.01a.228.228 0 0 0 .273.125.213.213 0 0 0 .126-.272zm-19.663-.636a.196.196 0 0 0-.275.107.207.207 0 0 0 .107.275.207.207 0 0 0 .275-.107.207.207 0 0 0-.107-.275zm2.122-4.648a.196.196 0 0 0-.275.107.204.204 0 0 0 .092.274.22.22 0 0 0 .29-.105.207.207 0 0 0-.107-.276zm31.299 7.13a.23.23 0 0 0-.317-.078l-.006.003a.235.235 0 0 0-.077.337.23.23 0 0 0 .317.078l.006-.003a.246.246 0 0 0 .077-.337zm-3.145-4.915a.23.23 0 0 0-.317-.077l-.006.003a.245.245 0 0 0 .259.415l.003-.002a.234.234 0 0 0 .061-.339zm-21.173 9.114a.264.264 0 0 0-.288.192.24.24 0 0 0 .178.286.222.222 0 0 0 .279-.151l.006-.027a.243.243 0 0 0-.175-.3c.001 0 0 0 0 0zm1.253-5.697a.264.264 0 0 0-.288.192.24.24 0 0 0 .178.286.243.243 0 0 0 .299-.175v-.001a.266.266 0 0 0-.189-.302zm10.976 3.1a.236.236 0 0 0-.269-.199l-.008.001-.015-.002a.248.248 0 0 0-.184.279.236.236 0 0 0 .269.199l.008-.001a.297.297 0 0 0 .093-.045.219.219 0 0 0 .106-.232zm-1.308-5.951a.267.267 0 0 0-.2.292.256.256 0 0 0 .294.185.235.235 0 0 0 .184-.276l-.001-.003a.243.243 0 0 0-.277-.198zm9.942 29.947a.423.423 0 0 0-.355.473.414.414 0 0 0 .474.341.43.43 0 0 0 .355-.473.414.414 0 0 0-.474-.341zm-1.559-9.885a.413.413 0 1 0 .134.816.413.413 0 0 0-.134-.816zm-1.545-9.882a.412.412 0 0 0 .1.816l.018-.002a.423.423 0 0 0 .355-.473.414.414 0 0 0-.473-.341zm-1.561-9.884a.409.409 0 0 0-.343.465l.001.008a.413.413 0 1 0 .35-.475.019.019 0 0 1-.008.002zm12.757 1.23a.416.416 0 0 0-.575-.137.416.416 0 0 0-.137.575c.12.198.378.258.575.137a.428.428 0 0 0 .137-.575zm-27.591 23.142a.407.407 0 0 0-.49.301l-.002.008a.418.418 0 0 0 .293.504.44.44 0 0 0 .506-.308.417.417 0 0 0-.307-.505c.001 0 0 0 0 0zm2.345-9.72a.398.398 0 0 0-.486.282c-.002.008-.005.017-.006.026a.404.404 0 0 0 .294.49.417.417 0 0 0 .505-.305v-.001a.398.398 0 0 0-.307-.492zm2.346-9.736a.42.42 0 0 0-.185.817.406.406 0 0 0 .49-.301l.002-.008a.419.419 0 0 0-.307-.508c.001 0 0 0 0 0zm1.354 22.685a.418.418 0 1 0-.171.817.418.418 0 0 0 .171-.817zm1.933-9.778a.44.44 0 0 0-.496.337.423.423 0 0 0 .325.48.418.418 0 0 0 .494-.322.428.428 0 0 0-.323-.495zm1.917-9.765a.409.409 0 1 0-.155.805.418.418 0 0 0 .494-.322.428.428 0 0 0-.339-.483zm1.932-9.778a.405.405 0 0 0-.478.316l-.002.009a.413.413 0 0 0 .325.48.398.398 0 0 0 .475-.3l.005-.025a.405.405 0 0 0-.315-.478c-.004-.002-.008-.002-.01-.002zm12.822 14.154a.421.421 0 0 0-.328.49c.05.223.27.362.493.314a.405.405 0 0 0 .327-.473l-.001-.003a.43.43 0 0 0-.491-.328zm-1.952-9.779a.427.427 0 0 0-.328.49.41.41 0 0 0 .48.326.41.41 0 0 0 .326-.48l-.002-.009a.405.405 0 0 0-.473-.327h-.003zm-27.727 4.235a.403.403 0 0 0-.558.11l-.009.016a.41.41 0 0 0 .11.566.415.415 0 1 0 .457-.692zm5.525-8.296a.416.416 0 0 0-.568.123.41.41 0 0 0 .11.566.415.415 0 1 0 .468-.684c-.004.001-.007-.003-.01-.005zm5.499 11.895a.3.3 0 0 0-.401.131l-.014.029a.311.311 0 1 0 .415-.16zm2.954-6.912a.308.308 0 0 0-.414.16.314.314 0 1 0 .414-.16zm12.831 6.241a.31.31 0 0 0-.318.301v.002a.329.329 0 0 0 .304.318.317.317 0 0 0 .318-.304.302.302 0 0 0-.281-.317h-.023zm.084-7.512a.3.3 0 0 0-.303.295v.01a.31.31 0 0 0 .301.318h.002a.33.33 0 0 0 .319-.318.31.31 0 0 0-.315-.305h-.004zm-26.384-3.492a.3.3 0 0 0-.424-.024l-.008.008a.305.305 0 0 0-.022.431l.017.017a.308.308 0 0 0 .437-.432zm23.6.992a.261.261 0 0 0-.363.073.08.08 0 0 1-.013.019.258.258 0 0 0 .055.359l.023.016a.279.279 0 0 0 .387-.077.275.275 0 0 0-.074-.38l-.015-.01z"/><linearGradient id="p" gradientUnits="userSpaceOnUse" x1="3986.97" y1="2818.313" x2="5989.195" y2="4852.831" gradientTransform="matrix(0.0741 0 0 0.0741 -276.8441 -94.8663)"><stop offset="0" style="stop-color:#23286b"/><stop offset=".353" style="stop-color:#1e2361"/><stop offset="1" style="stop-color:#151a4f"/></linearGradient><path fill="url(#p)" d="M104.96 183.733a136.05 136.05 0 0 1-62.006 14.516c-23.741-.12-39.576-6.344-39.576-6.344s-4.536-15.274 5.92-33.401c17.483-30.283 6.221-13.782 19.337-39.997a129.667 129.667 0 0 1 17.917-26.083 123.528 123.528 0 0 1 15.955-15.07c8.688 7.92 14.704 5.488 16.401 4.513.072 2.106.192 4.213.361 6.32 2.214 28.478 12.514 57.294 18.422 75.444.337 1.023.662 2.022.986 2.985 3.576 10.618 6.283 17.117 6.283 17.117z"/><linearGradient id="q" gradientUnits="userSpaceOnUse" x1="5104.281" y1="3224.611" x2="7181.643" y2="4322.49" gradientTransform="matrix(0.0741 0 0 0.0741 -276.8441 -94.8663)"><stop offset="0" style="stop-color:#23286b"/><stop offset=".353" style="stop-color:#1e2361"/><stop offset="1" style="stop-color:#151a4f"/></linearGradient><path fill="url(#q)" d="M180.804 174.117s-18.987 20.233-37.53 16.093c-16.918-3.779-18.434.734-26.424 2.563-.758.181-1.541.373-2.358.59-9.169 2.443-30.997 2.612-43.402-25.541-12.057-27.274-15.642-50.782-8.471-90.37 10.288 9.292 16.785 4.093 16.785 4.093a47.45 47.45 0 0 1-.12-1.287c2.286 4.309 13.189 24.555 23.801 38.974 11.937 16.225 15.655 18.006 32.392 13.505 2.767-.734 5.33-1.456 7.689-2.106 9.097-2.588 14.837-4.465 14.837-4.465l22.801 47.951z"/><path fill="#23286B" d="M94.552 32.557c-2.239-19.354-20.705-20.169-34.793-17.243-7.369 1.531-12.198 4.94-15.195 8.907a11.623 11.623 0 0 1-14.522-5.918c-.262-.519-1.042-.062-.779.456a12.475 12.475 0 0 0 14.459 6.653 20.414 20.414 0 0 0-3.271 10.069c-.185 3.953-.899 11.648-5.327 18.114s-4.503 17.89-4.503 17.89c21.485 7.945 49.197-3.122 49.197-3.122.346-12.842-6.589-16.903-3.247-23.777a11.296 11.296 0 0 0-.208 5.37c1.326 6.354 7.994 11.325 5.058 18.316-.225.534.649.768.87.24 1.398-3.33.89-6.257-.616-9.494-1.102-2.368-2.673-4.474-3.615-6.921a12.339 12.339 0 0 1 1.187-11.325c9.453-10.674 8.664-16.906 8.664-16.906a24.079 24.079 0 0 1 6.641 8.691z"/></svg></g></svg>