<svg enable-background="new 0 0 90.571 190.584" height="190.584" viewBox="0 0 90.571 190.584" width="90.571" xmlns="http://www.w3.org/2000/svg"><path d="m22.094 188.561c3.833 2.698 8.948 2.698 12.781 0v-137.162h-12.781z" fill="#013b84"/><path d="m24.818 33.058v50.454h62.386v-50.454c0-17.229-13.964-31.193-31.193-31.193-17.226 0-31.193 13.963-31.193 31.193z" fill="#667d97"/><path d="m24.82 83.512-24.82-8.248v-42.928c0-15.403 11.734-28.269 27.071-29.684l28.578-2.636-14.79 6.48c-4.809 2.69-8.632 6.847-10.911 11.863l-3.084 6.788c-1.347 2.966-2.045 6.186-2.045 9.444v48.921z" fill="#2888ff"/><path d="m24.702 77.473h30.613l-.666-45.137c0-10.633-5.592-20.057-14.101-25.34-3.817-2.37-8.276 5-10.806 9.242-2.433 4.08-4.923 15.095-4.923 18.352z" fill="#335175"/><path d="m55.315 76.282 30.614 7.762-61.111.4-.136-8.162z" fill="#4c6786"/><path d="m41.28 84.444s.113-.001.276-.002c-.095-0-.171.001-.276.002z" fill="#424242"/><g fill="#93c3ff"><path d="m22.914 59.08h3.914c.823 0 1.491-.668 1.491-1.491s-.668-1.491-1.491-1.491h-3.914c-.823 0-1.491.668-1.491 1.491s.668 1.491 1.491 1.491z"/><path d="m22.914 71.754h3.914c.823 0 1.491-.668 1.491-1.491s-.668-1.491-1.491-1.491h-3.914c-.823 0-1.491.668-1.491 1.491-0 .824.668 1.491 1.491 1.491z"/><path d="m85.166 59.08h3.914c.823 0 1.491-.668 1.491-1.491s-.668-1.491-1.491-1.491h-3.914c-.823 0-1.491.668-1.491 1.491s.668 1.491 1.491 1.491z"/><path d="m85.166 71.754h3.914c.823 0 1.491-.668 1.491-1.491s-.668-1.491-1.491-1.491h-3.914c-.823 0-1.491.668-1.491 1.491 0 .824.668 1.491 1.491 1.491z"/><path d="m22.956 83.512v-50.456c0-19.07 16.232-34.42 35.605-32.959 17.341 1.307 30.507 16.239 30.507 33.629v49.786c0 1.029-.834 1.864-1.864 1.864h-62.384c-1.03 0-1.864-.835-1.864-1.864zm62.384-50.456c0-17.074-14.666-30.787-32.061-29.203-15.203 1.383-26.595 14.62-26.595 29.886v47.909h58.656z"/></g><path d="m56.012 159.568c16.198 0 29.328-13.131 29.328-29.328l-.001-44.864h-58.656l.001 44.864c0 16.197 13.13 29.328 29.328 29.328z" fill="#2888ff"/><path d="m56.012 150.912c11.723 0 21.283-9.437 21.483-21.113h.003v-31.193c0-.515-.417-.932-.932-.932s-.932.417-.932.932v30.819c0 10.82-8.803 19.622-19.622 19.622s-19.622-8.803-19.622-19.622v-30.819c0-.515-.417-.932-.932-.932s-.932.417-.932.932l.003 31.192c.2 11.676 9.76 21.114 21.483 21.114z" fill="#93c3ff"/><path d="m33.457 81.648h2.497v3.728h-2.497z" fill="#2888ff"/><path d="m76.069 81.648h2.497v3.728h-2.497z" fill="#2888ff"/></svg>