<svg xmlns="http://www.w3.org/2000/svg"  viewBox="0 0 48 48" width="48px" height="48px"><path fill="#9CCC65" d="M40 45L8 45 8 3 30 3 40 13z"/><path fill="#F1F8E9" d="M38.5 14L29 14 29 4.5z"/><path fill="#33691E" d="M21.567 31.872c-.387.419-.862.734-1.425.947-.563.211-1.179.317-1.849.317-1.144 0-2.033-.354-2.666-1.063-.633-.708-.959-1.739-.978-3.093v-1.791c0-1.372.3-2.428.899-3.169.599-.74 1.473-1.11 2.622-1.11 1.08 0 1.895.267 2.444.8s.867 1.369.954 2.509h-1.955c-.055-.634-.187-1.065-.396-1.296-.209-.229-.538-.345-.984-.345-.542 0-.937.198-1.183.595s-.374 1.027-.383 1.894v1.805c0 .907.136 1.566.407 1.979.271.412.717.618 1.336.618.396 0 .718-.08.964-.239l.178-.123v-1.825h-1.408v-1.518h3.425V31.872zM25.088 33h-2.01v-9.953h2.01V33zM30.98 30.389c0-.405-.104-.712-.311-.919-.208-.208-.585-.423-1.132-.646-.998-.378-1.716-.821-2.153-1.33-.438-.508-.656-1.108-.656-1.801 0-.839.297-1.512.893-2.02.594-.509 1.35-.763 2.266-.763.611 0 1.155.129 1.634.386.479.258.847.621 1.104 1.091.257.47.386 1.003.386 1.6h-2.003c0-.465-.1-.819-.297-1.063-.199-.243-.484-.365-.858-.365-.351 0-.624.104-.82.311-.196.208-.294.487-.294.838 0 .273.109.521.328.742.219.221.605.449 1.162.687.971.351 1.676.781 2.115 1.292.44.511.66 1.16.66 1.948 0 .866-.275 1.543-.827 2.03s-1.302.731-2.249.731c-.643 0-1.229-.132-1.757-.396s-.942-.643-1.241-1.135c-.298-.492-.447-1.073-.447-1.743h2.017c0 .574.112.991.335 1.251s.588.39 1.094.39C30.629 31.503 30.98 31.132 30.98 30.389z"/></svg>