<svg xmlns="http://www.w3.org/2000/svg"  viewBox="0 0 48 48" width="48px" height="48px"><path fill="#448aff" d="M40,45H8V3h22l10,10V45z"/><path fill="#e3f2fd" d="M38.5,14H29V4.5L38.5,14z"/><polygon fill="#e3f2fd" points="17,33 15,33 15,28.694 12,28.694 12,33 10,33 10,23 12,23 12,27 15,27 15,23 16.98,23"/><rect width="2" height="10" x="27" y="23" fill="#e3f2fd"/><polygon fill="#e3f2fd" points="24.135,28.693 21,28.693 21,31.332 24.709,31.332 24.709,33 19,33 19,23 24.695,23 24.695,24.722 21,24.722 21,27 24.135,27"/><path fill="#e3f2fd" d="M35.319,24.738c-0.202-0.107-0.471-0.16-0.806-0.16c-0.538,0-0.918,0.188-1.142,0.563 c-0.223,0.377-0.342,0.995-0.355,1.856v1.88c0,0.989,0.11,1.668,0.332,2.037s0.601,0.554,1.138,0.554 c0.529,0,0.893-0.129,1.094-0.386c0.201-0.258,0.314-0.724,0.342-1.398h2.01v0.001c-0.05,1.135-0.369,1.994-0.957,2.577 C36.387,32.845,35.558,33,34.487,33c-1.125,0-1.988-0.233-2.587-0.973c-0.6-0.742-0.9-1.798-0.9-3.17v-1.675 c0-1.367,0.31-2.421,0.93-3.162c0.62-0.74,1.481-1.02,2.584-1.02c1.084,0,1.908,0.213,2.471,0.819s0.883,1.477,0.96,2.611h-2.017 c-0.018-0.702-0.126-1.186-0.325-1.453C35.53,24.88,35.436,24.8,35.319,24.738"/></svg>