<svg xmlns="http://www.w3.org/2000/svg"  viewBox="0 0 48 48" width="48px" height="48px"><path fill="#448AFF" d="M40 45L8 45 8 3 30 3 40 13z"/><path fill="#E3F2FD" d="M38.5 14L29 14 29 4.5zM31 29.4h-1V33h-2V23h3.2c1 0 1.8.3 2.3.8.5.5.8 1.3.8 2.2 0 1.3-.5 2.2-1.4 2.8l1.7 4.1V33h-2.2L31 29.4zM30 27.7h1.1c.4 0 .7-.1.9-.4.2-.3.3-.6.3-1.1 0-1-.4-1.5-1.2-1.5H30V27.7zM26.1 28.9H23V33h-2V23h5.5v1.7H23v2.5h3.1V28.9zM15.2 27.1h1c.5 0 .9-.1 1.1-.4.2-.2.4-.6.4-1 0-.4-.1-.7-.4-.9s-.6-.3-1-.3c-.4 0-.7.1-.9.3-.2.2-.4.5-.4.8h-1.9c0-.5.1-1 .4-1.4.3-.4.7-.7 1.1-.9.5-.2 1-.3 1.6-.3 1 0 1.8.2 2.4.7.6.5.9 1.2.9 2 0 .4-.1.9-.4 1.2-.3.4-.6.7-1.1.9.5.2 1 .5 1.2.9.3.4.4.9.4 1.4 0 .9-.3 1.6-.9 2.1-.6.5-1.5.8-2.5.8-1 0-1.8-.3-2.4-.8-.6-.5-.9-1.2-.9-2h1.9c0 .4.1.7.4.9.3.2.6.3 1 .3.5 0 .8-.1 1.1-.4.3-.2.4-.6.4-1 0-1-.5-1.5-1.6-1.5h-1V27.1z"/></svg>