<svg xmlns="http://www.w3.org/2000/svg"  viewBox="0 0 48 48" width="48px" height="48px"><path fill="#9CCC65" d="M40 45L8 45 8 3 30 3 40 13z"/><path fill="#F1F8E9" d="M38.5 14L29 14 29 4.5z"/><path fill="#33691E" d="M18.178,28.919c0,1.335-0.315,2.372-0.947,3.11s-1.507,1.107-2.628,1.107c-1.117,0-1.994-0.366-2.632-1.097c-0.638-0.732-0.961-1.756-0.971-3.073v-1.702c0-1.367,0.317-2.435,0.95-3.203c0.633-0.768,1.513-1.151,2.639-1.151c1.107,0,1.98,0.377,2.618,1.132c0.638,0.754,0.961,1.813,0.971,3.175V28.919z M16.161,27.251c0-0.897-0.127-1.565-0.383-2.003s-0.652-0.656-1.189-0.656c-0.533,0-0.927,0.211-1.183,0.632c-0.255,0.422-0.387,1.063-0.396,1.925v1.771c0,0.87,0.13,1.512,0.39,1.924c0.26,0.413,0.661,0.619,1.203,0.619c0.524,0,0.914-0.201,1.169-0.605c0.255-0.402,0.385-1.028,0.39-1.876V27.251z M24.268,30.389c0-0.405-0.104-0.712-0.311-0.919c-0.208-0.208-0.584-0.423-1.131-0.646c-0.998-0.378-1.716-0.821-2.153-1.33c-0.438-0.508-0.656-1.108-0.656-1.801c0-0.839,0.297-1.512,0.892-2.02c0.595-0.509,1.35-0.763,2.266-0.763c0.611,0,1.155,0.129,1.634,0.386c0.479,0.258,0.846,0.621,1.104,1.091s0.387,1.003,0.387,1.6h-2.003c0-0.465-0.099-0.819-0.297-1.063c-0.198-0.243-0.484-0.365-0.858-0.365c-0.351,0-0.625,0.104-0.82,0.311c-0.196,0.208-0.294,0.487-0.294,0.838c0,0.273,0.109,0.521,0.328,0.742c0.219,0.221,0.606,0.449,1.162,0.687c0.971,0.351,1.675,0.781,2.116,1.292s0.659,1.16,0.659,1.948c0,0.866-0.275,1.543-0.826,2.03c-0.552,0.487-1.302,0.731-2.25,0.731c-0.643,0-1.228-0.132-1.757-0.396s-0.942-0.643-1.241-1.135s-0.448-1.073-0.448-1.743h2.017c0,0.574,0.112,0.991,0.335,1.251s0.588,0.39,1.094,0.39C23.917,31.503,24.268,31.132,24.268,30.389z M30.598,23.047l1.88,7.198l1.873-7.198h2.625V33h-2.017v-2.693l0.185-4.149L33.154,33h-1.367l-1.989-6.843l0.185,4.149V33H28v-9.953H30.598z"/></svg>