<svg xmlns="http://www.w3.org/2000/svg"  viewBox="0 0 48 48" width="48px" height="48px"><path fill="#448AFF" d="M40 45L8 45 8 3 30 3 40 13z"/><path fill="#E3F2FD" d="M38.5 14L29 14 29 4.5zM34.1 29.3L35 23h2l-1.8 10h-2l-1.2-5.9L30.9 33h-2l-1.8-10h2l.9 6.2 1.2-6.2h1.7L34.1 29.3zM24.5 31h-2.7l-.5 2h-2.1l3.1-10h1.8l3.1 10H25L24.5 31zM22.2 29.3h1.9l-.9-3.5L22.2 29.3zM15 29.4h-1V33h-2V23h3.2c1 0 1.8.3 2.3.8.5.5.8 1.3.8 2.2 0 1.3-.5 2.2-1.4 2.8l1.7 4.1V33h-2.2L15 29.4zM14 27.7h1.1c.4 0 .7-.1.9-.4.2-.3.3-.6.3-1.1 0-1-.4-1.5-1.2-1.5H14V27.7z"/></svg>