<svg xmlns="http://www.w3.org/2000/svg"  viewBox="0 0 48 48" width="48px" height="48px"><path fill="#9CCC65" d="M40 45L8 45 8 3 30 3 40 13z"/><path fill="#F1F8E9" d="M38.5 14L29 14 29 4.5z"/><path fill="#33691E" d="M15.603 29.158l-.793.998V33H12.8v-9.953h2.01v4.341l.636-1.073 1.853-3.268h2.461l-2.851 4.375L19.807 33h-2.386L15.603 29.158zM23.17 23.047l1.88 7.198 1.873-7.198h2.625V33h-2.017v-2.693l.185-4.149L25.727 33h-1.367l-1.989-6.843.185 4.149V33h-2.01v-9.953H23.17zM33.171 31.332h3.527V33h-5.537v-9.953h2.01V31.332z"/></svg>