<svg xmlns="http://www.w3.org/2000/svg"  viewBox="0 0 48 48" width="48px" height="48px"><path fill="#448AFF" d="M40 45L8 45 8 3 30 3 40 13z"/><path fill="#E3F2FD" d="M38.5 14L29 14 29 4.5zM35 33h-5.8v-1.3l2.7-3.4c.3-.5.6-.9.7-1.2.2-.4.2-.7.2-1 0-.4-.1-.8-.2-1-.2-.2-.4-.4-.7-.4-.3 0-.6.1-.7.4-.2.3-.3.7-.3 1.2H29c0-.6.1-1.2.4-1.7.3-.5.6-.9 1.1-1.2.5-.3 1-.4 1.5-.4.9 0 1.6.2 2 .7.5.5.7 1.2.7 2.1 0 .6-.1 1.1-.4 1.7-.3.6-.8 1.3-1.5 2.1l-1.3 1.8H35V33zM19.8 29.6c0 1.1-.4 2-.9 2.5-.6.6-1.4.9-2.4.9-1.1 0-1.9-.4-2.5-1.1-.6-.7-.9-1.8-.9-3.1v-1.6c0-1.3.3-2.4.9-3.1.6-.7 1.4-1.1 2.5-1.1 1.1 0 1.9.3 2.4.9.6.6.9 1.4.9 2.6h-2c0-.7-.1-1.2-.3-1.4-.2-.3-.5-.4-1.1-.4-.5 0-.9.2-1.1.6-.2.4-.3 1-.3 1.8v1.8c0 1 .1 1.6.3 2 .2.4.6.5 1.1.5.5 0 .9-.1 1.1-.4.2-.3.3-.7.3-1.4H19.8zM24 29.3h-1V33h-2V23h3.2c1 0 1.8.3 2.3.8.6.5.8 1.3.8 2.2 0 1.3-.5 2.3-1.4 2.8l1.8 4.1V33h-2.2L24 29.3zM23 27.7h1.1c.4 0 .7-.1.9-.4.2-.3.3-.6.3-1.1 0-1-.4-1.5-1.2-1.5H23V27.7z"/></svg>