<svg xmlns="http://www.w3.org/2000/svg"  viewBox="0 0 48 48" width="48px" height="48px"><path fill="#9CCC65" d="M40 45L8 45 8 3 30 3 40 13z"/><path fill="#F1F8E9" d="M38.5 14L29 14 29 4.5z"/><path fill="#33691E" d="M15,32.974h-2l-1.99-6.528v6.528H9v-9.953h2.01L13,29.556v-6.535h2V32.974z M18.622,23.021l1.88,7.198l1.873-7.198H25v9.953h-2V30.28v-4.149l-1.821,6.843h-1.367L18,26.131v4.149v2.693h-2v-9.953H18.622z M30,28.667h-2.201v2.639H31v1.668h-5v-9.953h5v1.675h-3.201v2.352H30V28.667z M36.652,30.937H34.25l-0.467,2.037H31.92l2.726-9.953h1.611L39,32.974h-1.881L36.652,30.937z M34.633,29.262h1.63l-0.815-3.548L34.633,29.262z"/></svg>