<svg xmlns="http://www.w3.org/2000/svg"  viewBox="0 0 48 48" width="48px" height="48px"><path fill="#9CCC65" d="M40 45L8 45 8 3 30 3 40 13z"/><path fill="#F1F8E9" d="M38.5 14L29 14 29 4.5z"/><path fill="#33691E" d="M14.603 29.158l-.793.998V33H11.8v-9.953h2.01v4.341l.636-1.073 1.853-3.268h2.461l-2.851 4.375L18.807 33h-2.386L14.603 29.158zM22.17 23.047l1.88 7.198 1.873-7.198h2.625V33h-2.017v-2.693l.185-4.149L24.727 33h-1.367l-1.989-6.843.185 4.149V33h-2.01v-9.953H22.17zM32.246 31.332h4.102V33h-6.453v-1.21l4.061-7.068h-4.102v-1.675h6.419v1.183L32.246 31.332z"/></svg>