<svg xmlns="http://www.w3.org/2000/svg"  viewBox="0 0 48 48" width="48px" height="48px"><path fill="#448AFF" d="M40 45L8 45 8 3 30 3 40 13z"/><path fill="#E3F2FD" d="M38.5 14L29 14 29 4.5zM12 33V23h2.6c1.2 0 2.1.4 2.8 1.1.7.7 1 1.8 1.1 3v1.6c0 1.3-.3 2.3-1 3.1-.7.7-1.6 1.1-2.9 1.1H12zM14 24.7v6.6h.6c.7 0 1.1-.2 1.4-.5.3-.4.4-1 .4-1.8v-1.7c0-.9-.1-1.6-.4-1.9-.3-.4-.7-.6-1.3-.6H14zM27 33.1h-2L22 26.6v6.5h-2v-10h2l2.9 6.5v-6.5h2V33.1zM35.9 32c-.4.4-.9.7-1.4.9-.6.2-1.2.3-1.8.3-1.1 0-2-.4-2.7-1.1-.6-.7-1-1.7-1-3.1v-1.8c0-1.4.3-2.4.9-3.2.6-.7 1.5-1.1 2.6-1.1 1.1 0 1.9.3 2.4.8.5.5.9 1.4 1 2.5h-2c-.1-.6-.2-1.1-.4-1.3-.2-.2-.5-.3-1-.3-.5 0-.9.2-1.2.6-.2.4-.4 1-.4 1.9V29c0 .9.1 1.6.4 2 .3.4.7.6 1.3.6.4 0 .7-.1 1-.2l.2-.1v-1.8h-1.4v-1.5h3.4V32z"/></svg>