<svg xmlns="http://www.w3.org/2000/svg"  viewBox="0 0 48 48" width="48px" height="48px"><path fill="#FFC107" d="M40 45L8 45 8 3 30 3 40 13z"/><path fill="#FFF3E0" d="M38.5 14L29 14 29 4.5z"/><path fill="#C47205" d="M16.517 29.302l.943-6.255h1.989L17.679 33h-2.017L14.5 27.135 13.352 33h-2.023l-1.777-9.953h2.003l.937 6.248 1.169-6.248h1.688L16.517 29.302zM23.161 23.047l1.88 7.198 1.873-7.198h2.625V33h-2.017v-2.693l.185-4.149L25.718 33h-1.367l-1.989-6.843.185 4.149V33h-2.01v-9.953H23.161zM36.026 30.963h-2.741L32.752 33h-2.126l3.11-9.953h1.839L38.706 33H36.56L36.026 30.963zM33.723 29.288h1.859l-.93-3.548L33.723 29.288z"/></svg>