<svg xmlns="http://www.w3.org/2000/svg"  viewBox="0 0 48 48" width="48px" height="48px"><path fill="#D1C4E9" d="M41 4H7C5.9 4 5 4.9 5 6v8c0 1.1.9 2 2 2h34c1.1 0 2-.9 2-2V6C43 4.9 42.1 4 41 4M41 18H7c-1.1 0-2 .9-2 2v8c0 1.1.9 2 2 2h34c1.1 0 2-.9 2-2v-8C43 18.9 42.1 18 41 18M41 32H7c-1.1 0-2 .9-2 2v8c0 1.1.9 2 2 2h34c1.1 0 2-.9 2-2v-8C43 32.9 42.1 32 41 32"/><path fill="#D1C4E9" d="M24 8A16 16 0 1 0 24 40A16 16 0 1 0 24 8Z"/><path fill="#512DA8" d="M16,25.3h-1V29h-2V19h3.2c1,0,1.8,0.3,2.3,0.8c0.5,0.5,0.8,1.3,0.8,2.2c0,1.3-0.5,2.2-1.4,2.8l1.7,4.1V29h-2.2L16,25.3z M15,23.6h1.1c0.4,0,0.7-0.1,0.9-0.4c0.2-0.3,0.3-0.6,0.3-1.1c0-1-0.4-1.5-1.2-1.5H15V23.6z M24,25.3h-1V29h-2V19h3.2c1,0,1.8,0.3,2.3,0.8c0.5,0.5,0.8,1.3,0.8,2.2c0,1.3-0.5,2.2-1.4,2.8l1.7,4.1V29h-2.2L24,25.3z M23,23.6h1.1c0.4,0,0.7-0.1,0.9-0.4c0.2-0.3,0.3-0.6,0.3-1.1c0-1-0.4-1.5-1.2-1.5H23V23.6z M31,25.5V29h-2V19h3.4c1,0,1.8,0.3,2.4,0.9c0.6,0.6,0.9,1.4,0.9,2.4c0,1-0.3,1.7-0.9,2.3c-0.6,0.6-1.4,0.8-2.4,0.8H31z M31,23.8h1.4c0.4,0,0.7-0.1,0.9-0.4c0.2-0.3,0.3-0.6,0.3-1.1c0-0.5-0.1-0.9-0.3-1.2c-0.2-0.3-0.5-0.4-0.9-0.4H31V23.8z"/></svg>